<svg aria-hidden="true" style="width:0;height:0;position:absolute;overflow:hidden" xmlns="http://www.w3.org/2000/svg"><defs><symbol id="icon-weight" viewBox="0 0 32 32"><path d="M14.178.547c-3.974.589-7.247 2.796-8.452 5.685-.384.913-.487 1.474-.487 2.573.007.812.036 1.114.163 1.552.258.862.443 1.301.827 1.92l.356.574-.4.489c-3.154 3.924-3.501 9.444-.871 13.793.982 1.632 2.586 3.235 4.151 4.169l.466.273 12.743-.108.302-.165c1.057-.596 2.548-1.926 3.383-3.004a12.51 12.51 0 0 0 2.413-5.546l.01-.074c.118-.74.118-2.933-.007-3.63-.377-2.148-1.182-3.988-2.452-5.62-.244-.309-.436-.568-.436-.589 0-.014.133-.237.288-.489a7.777 7.777 0 0 0 .864-1.962c.199-.719.199-2.516 0-3.235-.709-2.551-2.836-4.679-5.843-5.851-.843-.331-2.284-.683-3.214-.797-.864-.1-2.999-.08-3.804.043zm4.498 1.171c3.945.769 6.834 3.184 7.365 6.16.118.668.044 1.804-.155 2.436-.2.618-.569 1.344-1.004 1.962-.178.252-.325.54-.325.633s.155.338.377.582c1.846 2.048 2.821 4.614 2.821 7.388-.007 3.156-1.219 5.923-3.553 8.093-.399.373-.968.841-1.271 1.042l-.554.373-12.211.051-.473-.302c-1.714-1.113-3.258-2.953-4.115-4.908-1.078-2.472-1.189-5.34-.31-7.913.466-1.337 1.086-2.429 2.031-3.58.385-.46.562-.733.562-.862 0-.108-.192-.46-.444-.827-.886-1.287-1.248-2.717-1.034-4.068.222-1.365.842-2.487 1.987-3.601 1.493-1.444 3.576-2.4 6.021-2.76 1.012-.151 3.25-.093 4.284.1z"/><path d="M14.509 2.983c-3.028.496-5.4 2.178-6.175 4.385-.178.496-.207.69-.207 1.402s.029.905.207 1.401c.11.316.317.756.458.978.384.618.554.64 1.316.18a11.719 11.719 0 0 1 3.727-1.474l.078-.014c.916-.187 2.674-.258 3.671-.143 1.558.18 3.25.74 4.602 1.538.384.222.776.409.871.409.562 0 1.278-1.617 1.278-2.874 0-2.796-2.674-5.19-6.463-5.787-.805-.129-2.587-.129-3.362 0zm3.657 1.15c1.271.273 2.437.791 3.317 1.474 1.182.913 1.817 2.185 1.713 3.413-.036.489-.221 1.15-.332 1.222-.03.014-.444-.158-.916-.388a14.138 14.138 0 0 0-3.131-1.081l-.097-.018c-.687-.143-.975-.165-2.511-.158-1.515 0-1.832.022-2.489.158a13.283 13.283 0 0 0-3.196 1.099l.078-.035c-1.1.524-1.042.532-1.241-.116-.258-.84-.096-1.955.406-2.796.267-.445.997-1.186 1.529-1.552 1.012-.698 1.899-1.013 3.804-1.359.391-.071 2.564.029 3.066.137zm-1.203 9.271c-.207.26-.207.504.007.712.14.137.281.172.791.209a6.489 6.489 0 0 1 2.815.865l-.031-.017c.606.359 1.529 1.229 1.943 1.854.613.898 1.034 2.185 1.034 3.134 0 .331.03.431.185.574.236.237.547.237.776 0 .163-.165.169-.208.125-.912-.207-3.479-3.184-6.382-6.744-6.578l-.74-.043-.162.202z"/></symbol><symbol id="icon-ice-cream" viewBox="0 0 32 32"><path d="M16.108.107c.08.215.241 1.252.241 1.573v.011c0 .818-.318 1.561-.838 2.114l.001-.002c-.449.482-.898.749-1.975 1.185-1.198.489-1.694.783-2.256 1.339-.569.569-.904 1.191-1.024 1.922-.134.796 0 1.358.408 1.68l.207.16-.328.208c-.662.436-1.867 1.46-2.075 1.774-.402.603-.362 1.164.093 1.393l.214.107-.241.228c-.362.341-.436.576-.382 1.191.034.409.02.63-.073.964-.114.436-.114.442.033.75.148.301.563.683.938.844.18.08.187.107.228.723.02.356.053 1.486.08 2.517.02 1.031.068 1.975.107 2.089.034.12.161.281.276.361.388.268.656.556.829.891.195.382.409 1.319 1.058 4.559l.455 2.276.282.268c.535.529 1.56.77 3.247.77 1.693 0 2.704-.235 3.24-.764l.288-.274.414-2.109c.916-4.612.997-4.867 1.714-5.436.22-.181.436-.402.475-.502.047-.114.094-.991.127-2.316.027-1.178.068-2.343.094-2.591l.04-.448.436-.329c.548-.421.763-.803.763-1.392-.006-.696-.462-1.46-1.292-2.142l-.396-.321.195-.276c.81-1.117.301-2.664-1.205-3.694l-.455-.315.167-.174c.743-.796.864-3.173.241-4.827-.374-.984-1.232-2.055-2.283-2.845-.514-.388-1.934-1.245-2.06-1.245-.027 0-.027.047-.006.107zm1.928 2.337c.356.348.783.823.951 1.064.997 1.393 1.252 3.14.649 4.426-.241.522-.964 1.298-1.634 1.76-1.024.71-3.327 1.902-4.933 2.557-2.584 1.052-4.084 1.252-4.258.563-.068-.261.127-.468.951-1.018.742-.508 4.076-2.986 4.136-3.086.02-.027-.321.127-.749.341-1.452.737-2.142.596-2.108-.428.02-.743.556-1.587 1.298-2.068.188-.12.771-.388 1.307-.603 1.76-.709 2.296-1.071 2.892-1.961.356-.529.743-1.507.77-1.922.007-.147.034-.261.053-.261s.322.288.676.636zm1.827 7.606c.489.274.997.743 1.218 1.111.389.662.188 1.325-.649 2.169-.91.924-2.463 1.808-4.171 2.37-1.573.516-3.079.756-5.236.83l-1.339.047.871.053c1.124.074 3.3.007 4.143-.127 2.243-.356 4.151-1.065 5.516-2.042.308-.221.629-.402.716-.402.221 0 1.185.924 1.38 1.312.107.221.133.382.114.596-.1.891-1.186 1.366-3.803 1.68-3.2.382-7.384.007-9.172-.816-.844-.388-.984-.61-.77-1.198.067-.188.08-.409.053-.724-.034-.415-.027-.468.12-.622.335-.362.898-.569 2.96-1.092.723-.187 1.707-.482 2.175-.656 1.138-.415 3.274-1.493 4.264-2.156.931-.616 1.065-.643 1.607-.334zm-8.891 8.194c1.406.409 2.652.529 4.968.482 1.74-.033 2.812-.14 4.357-.415.316-.053.589-.1.623-.1.074 0 .053 2.571-.027 3.247-.087.716-.282 1.272-.489 1.406-.214.14-1.285.288-2.718.368-2.939.16-5.958 0-6.895-.375-.508-.207-.563-.476-.569-2.959 0-1.653.013-1.881.1-1.847.053.02.348.107.649.194zm1.587 5.69c.482.06 1.004.12 1.164.14l.289.034-.255.281c-.328.355-.83 1.064-1.011 1.426-.207.415-.275.442-.582.275l-.261-.148-.147-.91a23.34 23.34 0 0 0-.216-1.217l.028.165c-.06-.173-.121-.173.99-.046zm7.137-.074c0 .013-.034.187-.068.382-.04.2-.207 1.292-.374 2.429-.341 2.377-.569 3.494-.777 3.869-.288.502-.978.796-2.095.891-.436.034-1.748-.053-1.821-.121-.053-.06 1.098-1.486 1.279-1.58.167-.094.213-.08.782.213.663.349.998.403.998.181s-.174-.436-.603-.729c-.395-.282-.535-.443-.535-.63 0-.053.194-.355.428-.669s.575-.817.749-1.118l.329-.542.3.041c.609.087.77.08.75-.053-.013-.068-.127-.261-.255-.422-.127-.167-.228-.335-.228-.368 0-.127.622-1.299.824-1.547.174-.214.315-.322.315-.228zm-4.184.536c.334.221 1.593 1.313 1.673 1.446.034.06-1.258 2.082-1.513 2.37-.027.034-.167-.033-.308-.14a20.117 20.117 0 0 0-1.08-.752l-.085-.052-.904-.596.542-.917c.964-1.613.944-1.587 1.151-1.587.107 0 .341.1.523.228zm2.537.24c-.235.288-.428.469-.508.469-.174 0-.456-.154-.931-.502l-.396-.288.791-.047c.348-.013.665-.034.98-.065l-.064.005c.536-.087.536-.08.128.428zm-5.061 3.221c.616.241 1.66.81 1.962 1.065.214.173.214.187.127.401a6.654 6.654 0 0 1-.43.741l.015-.024a10.9 10.9 0 0 0-.417.682l-.032.061c-.213.415-.281.449-.723.329-.476-.141-.729-.382-.863-.818-.181-.609-.469-2.329-.436-2.597.013-.1.294-.04.796.161z"/></symbol><symbol id="icon-cow" viewBox="0 0 32 32"><path d="M6.169.192c-.262.226-1.008 1.781-1.276 2.631-.318 1.052-.427 1.84-.384 2.93.058 1.556.449 2.736 1.31 3.968.225.324.406.601.406.624 0 .015-.138.03-.311.03-.747 0-2.144.248-3.215.571-1.7.512-2.7 1.405-2.7 2.405 0 .354.318.955.659 1.262.659.595 2.1 1.158 3.649 1.428.536.098 2.129.263 2.484.27.065 0 .087.347.087 1.481 0 .977.036 1.736.108 2.202.26 1.668 1.071 3.434 2.142 4.682l.37.428-.246.398c-.362.564-.5.992-.542 1.63-.109 1.533.846 2.893 2.693 3.848 3.517 1.826 8.984 1.112 11.033-1.443.999-1.248 1.115-2.676.325-3.968l-.246-.398.442-.533c.826-.992 1.361-1.984 1.766-3.239.34-1.067.471-2.097.471-3.728 0-.743.021-1.36.058-1.36.333-.007 1.933-.18 2.44-.27 1.556-.27 2.969-.827 3.649-1.428.34-.308.659-.909.659-1.262 0-1.113-1.129-2.014-3.229-2.556-.687-.18-1.983-.398-2.613-.436l-.297-.023.326-.451c.405-.548.912-1.616 1.108-2.315.55-2.021.21-4.373-.97-6.62-.493-.932-.834-1.15-1.231-.783-.152.144-.218.339-.362 1.045-.449 2.247-1.282 4.028-2.498 5.342l-.536.587H10.245l-.478-.518C8.58 5.315 7.718 3.467 7.269 1.212 7.124.505 7.059.311 6.907.168c-.239-.218-.471-.211-.738.022zm.925 4.457c.384.841.862 1.63 1.426 2.359l.449.579-.47.353c-.442.338-.854.82-1.173 1.369l-.137.247-.348-.474c-1.188-1.637-1.484-3.644-.854-5.726.304-1.006.297-.999.572-.127.131.42.377 1.06.536 1.42zm18.845-1.586c.262.728.414 1.569.414 2.444l-.001.093v-.005c0 1.367-.362 2.524-1.122 3.562l-.34.466-.253-.428a4.534 4.534 0 0 0-1.254-1.381l-.013-.009c-.196-.127-.347-.255-.347-.27 0-.022.137-.196.311-.383.804-.894 1.665-2.502 2.092-3.885.13-.428.26-.782.282-.782s.131.264.231.58zM22.24 8.556c.804.338 1.571 1.307 1.694 2.126.065.451.217.737.412.782.087.014.688.067 1.332.112 2.287.151 4.09.639 4.858 1.308.355.316.318.579-.108.902-.854.646-2.7 1.134-4.583 1.218-1.245.052-1.506.089-1.673.262-.123.128-.137.263-.137 1.623 0 1.842-.094 2.901-.326 3.757-.325 1.164-.97 2.405-1.723 3.284l-.311.361-.644-.384a7.832 7.832 0 0 0-2.335-.958l-.054-.011c-2.744-.654-5.778-.256-7.819 1.029l-.471.3-.297-.353c-.405-.474-1.043-1.488-1.296-2.059-.557-1.293-.724-2.345-.724-4.66 0-2.247.116-2.082-1.549-2.172-2.129-.113-3.751-.496-4.772-1.142-.753-.481-.629-.909.42-1.413 1.006-.489 2.388-.781 4.308-.901 1.492-.098 1.527-.121 1.665-.842.203-1.09 1.006-1.991 2.02-2.277.253-.075 1.672-.09 6.016-.083l5.684.015.412.173zm-4.069 15.556c1.774.436 3.099 1.247 3.671 2.254.138.233.196.474.224.842.029.458.008.571-.166.947-.804 1.707-3.757 2.833-6.762 2.578-3.612-.3-5.988-2.315-5.053-4.291.507-1.068 2.222-2.089 4.032-2.39.297-.044.594-.098.652-.113s.71-.015 1.449 0c1.005.023 1.491.068 1.954.173z"/><path d="M10.99 12.321c-.449.151-.753.347-1.158.752-.356.338-.384.736-.087.977.276.225.536.196.868-.098.42-.368.747-.518 1.152-.518.405-.008.716.135 1.15.518.333.293.594.323.869.098.145-.12.188-.218.188-.444 0-.232-.051-.338-.305-.593-.716-.721-1.78-.999-2.678-.692zm8.441-.008c-.462.173-1.057.564-1.295.857-.232.286-.24.609 0 .85.238.255.528.24.876-.045.854-.707 1.492-.729 2.281-.076.203.173.434.308.507.308.355 0 .644-.316.644-.692 0-.24-.601-.796-1.144-1.06-.601-.293-1.317-.346-1.868-.142zM12.04 26.224c-.21.203-.283.496-.174.729.08.188.203.263.702.398.225.06.319.135.398.323.101.249.109.249.667.271l.557.022v-.211c-.007-.3-.174-.736-.391-1.036-.253-.347-.695-.572-1.195-.617-.34-.03-.427-.015-.564.121zm6.914-.053c-.362.098-.883.587-1.028.969a2.525 2.525 0 0 0-.137.677v.008c-.014.323.014.398.188.556.427.376.992.083.992-.518 0-.293.217-.496.601-.572.405-.075.55-.24.557-.623 0-.504-.449-.699-1.173-.496z"/></symbol><symbol id="icon-main-logo" viewBox="0 0 30 32"><path d="M15.226 17.082c1.415-3.784-1.515-5.855-3.457-7.217-.371-.278-.742-.538-1.044-.776a3.627 3.627 0 0 1-1.133-1.674l-.007-.026a3.48 3.48 0 0 1-.163-1.067c0-.345.049-.679.141-.995l-.006.025a.39.39 0 0 0-.115-.395.402.402 0 0 0-.412-.08l.003-.001c-.69.273-1.285.63-1.811 1.067l.011-.009a4.272 4.272 0 0 0-1.215 1.452l-.011.024a4.115 4.115 0 0 0-.442 1.857v.001a4.977 4.977 0 0 0-.952.978l-.01.014a3.579 3.579 0 0 0-.709 2.332v-.008a4.607 4.607 0 0 0-1.276 1.945l-.009.032a4.55 4.55 0 0 0-.124 2.376l-.005-.03a1.247 1.247 0 0 0-.609 1.065c0 .12.017.237.05.347l-.002-.009c.075.262.235.493.456.657s.49.252.767.25h.026v2.151c0 .219.089.428.245.583s.369.241.591.241h.65l1.058 9.04c.022.201.118.387.271.522s.351.21.556.21h4.404c.206 0 .404-.075.557-.21s.251-.32.275-.522l1.058-9.04h.65a.844.844 0 0 0 .591-.241.817.817 0 0 0 .245-.582v-2.152H14.347c.348 0 .663-.139.894-.365a1.24 1.24 0 0 0 .371-.883v-.014c0-.343-.142-.654-.371-.875l-.011.003zm-9.531-6.866c.535 1.98 2.599 2.759 4.482 3.455a.41.41 0 0 0 .493-.052.4.4 0 0 0 .124-.289l-.001-.028v.001a.393.393 0 0 0-.166-.295l-.001-.001a.402.402 0 0 0-.16-.068h-.003c-2.027-.758-3.939-1.464-4.084-3.488a3.32 3.32 0 0 1 .318-1.639l-.009.02a3.417 3.417 0 0 1 1.038-1.277l.009-.006c.283-.231.586-.438.906-.615a4.491 4.491 0 0 0 .002.779l-.001-.017c.047.615.216 1.181.484 1.686l-.011-.023c.281.531.648.98 1.087 1.343l.007.006c.308.26.691.527 1.114.812.977.692 2.087 1.465 2.792 2.511.441.619.704 1.39.704 2.223 0 .538-.11 1.051-.309 1.517l.01-.025h-1.641c-3.382 0-7.27-.922-8.038-3.506a2.94 2.94 0 0 1 .009-1.646l-.005.021a2.968 2.968 0 0 1 .87-1.377l.003-.003-.019-.018zM8.74 22.693l1.24 1.222-1.241 1.222-1.24-1.23 1.24-1.215zm2.844 3.21-1.025 1.01-1.24-1.222 1.241-1.219 1.076 1.057-.052.374zM8.74 28.706l-1.241-1.222 1.241-1.222 1.24 1.222-1.241 1.222zm-.568-3.008L6.931 26.92l-1.032-1.018-.044-.366 1.077-1.057 1.24 1.219zM6.36 27.484l-.249.245-.063-.556.312.311zm-.13 1.251.702-.692 1.363 1.354a.763.763 0 0 0 .026.081H6.316l-.086-.743zm4.322-.691.702.692-.086.732h-2.06l1.444-1.424zm.816-.315-.249-.245.316-.311-.067.556zm.372-3.199-.62-.622.787-.776-.167 1.398zm-1.192-1.178-1.177-1.156h2.354l-1.177 1.157zm-3.62 0-1.177-1.156h2.354l-1.177 1.157zm4.01 7.817h-4.4a.03.03 0 0 1-.026-.025l-.104-.879h4.664l-.1.879a.03.03 0 0 1-.029.026h-.003zm3.405-12.751h-1.292a.406.406 0 0 0-.311.102.392.392 0 0 0 0 .59.403.403 0 0 0 .271.103l.042-.002h-.002.46v2.152a.032.032 0 0 1-.01.019.032.032 0 0 1-.019.007H3.986a.032.032 0 0 1-.019-.007.032.032 0 0 1-.01-.019v-2.152h7.355a.408.408 0 0 0 .261-.129.394.394 0 0 0 0-.537.402.402 0 0 0-.259-.128h-8.17a.467.467 0 0 1-.353-.117.453.453 0 0 1-.15-.335v-.001c0-.133.058-.252.149-.334a.462.462 0 0 1 .31-.119l.044.002h-.002.843a.408.408 0 0 0 .261-.129.394.394 0 0 0 0-.537.408.408 0 0 0-.259-.129h-.744a3.919 3.919 0 0 1 .056-1.707l-.006.027c.15-.579.412-1.083.764-1.511l-.005.007c.26.798.928 1.889 2.599 2.756 1.57.808 3.65 1.222 6.178 1.222h1.485a.462.462 0 0 1 .352.117.453.453 0 0 1 .15.335v.001a.449.449 0 0 1-.149.334.462.462 0 0 1-.31.119l-.044-.002H14.341z"/><path d="m16.964 29.152-.293.448.006.004.287-.453zm3.149.152.535-.012-.014-.62-.611.104.09.528zm.037 1.647.136.518.409-.108-.01-.422-.535.012zm-4.133.079.121-.522-.003-.001-.117.523zm-2.039-.911.347-.409h-.001l-.346.409zm-.738-1.673.536.003v-.003h-.536zm.256-1.172-.48-.236v.001l.48.235zm1.642-1.402.19.501.002-.001-.192-.5zm5.263-.136.534.041.035-.452-.44-.109-.129.52zm-.131 1.679-.099.526.587.111.046-.596-.534-.042zm-1.428-.687c-.804 0-1.48.086-1.973.303a1.616 1.616 0 0 0-.651.489 1.253 1.253 0 0 0-.255.76v.015-.001h1.071v-.013c0-.043.014-.083.038-.115a.57.57 0 0 1 .228-.156c.288-.127.783-.212 1.542-.212v-1.072zm-2.879 1.566c0 .551.247 1.006.709 1.307l.585-.897a.433.433 0 0 1-.223-.409h-1.071zm.714 1.31c.438.277 1.015.381 1.663.381v-1.071c-.559 0-.899-.095-1.089-.215l-.574.905zm1.663.381c.635 0 1.256-.051 1.863-.154l-.179-1.056c-.5.088-1.077.139-1.665.139h-.02.001v1.071zm1.238-.67.036 1.648 1.071-.024-.037-1.647-1.071.024zm.435 1.118a7.964 7.964 0 0 1-2.029.244v1.071c.821 0 1.589-.092 2.302-.279l-.273-1.036zm-2.029.244c-.757 0-1.369-.06-1.846-.169l-.241 1.044c.582.134 1.281.197 2.087.197v-1.071zm-1.85-.17c-.511-.114-.881-.236-1.127-.356l-.47.962c.353.172.814.316 1.363.439l.234-1.046zm-1.126-.356a3.264 3.264 0 0 1-.688-.444l.005.004-.693.817c.263.222.561.417.881.574l.026.011.47-.962zm-.685-.441c-.364-.308-.55-.709-.547-1.262l-1.071-.005c-.004.842.301 1.556.927 2.085l.692-.818zm-.547-1.264c0-.36.07-.669.202-.936l-.962-.471c-.211.43-.311.902-.311 1.407h1.071zm.201-.936c.243-.495.673-.88 1.351-1.137l-.38-1.002c-.884.336-1.549.886-1.933 1.666l.961.473zm1.354-1.138c.712-.273 1.507-.414 2.392-.414v-1.071c-.999 0-1.926.159-2.776.485l.384 1zm2.392-.414c.901 0 1.751.1 2.549.298l.258-1.04c-.89-.221-1.826-.33-2.807-.33v1.071zm2.144-.263-.13 1.679 1.068.084.131-1.679-1.068-.083zm.503 1.194a8.343 8.343 0 0 0-1.528-.161v1.071c.377 0 .818.046 1.328.142l.199-1.053zm5.226.855-.003.536.544.003-.005-.544-.536.005zm-.23-.695-.364.393.005.004.359-.397zm-1.334.053.371.386.004-.004-.375-.383zm-.324.632-.529-.087-.101.619.627.003.003-.536zm3.938 2.856.324.427.192-.146.018-.241-.534-.039zm-1.156.429-.115-.523h-.003l.118.523zm-4.017-.146-.182.504.004.001.178-.505zm-.915-.487-.332.42.003.002.003.002.326-.425zm-.612-.769-.48.237.001.002.479-.24zm.627-3.248zm4.896-.581.214-.49-.005-.002-.209.493zm1.23 1.13-.482.234.001.003.48-.237zm.209.937.534.038.001-.019v-.02h-.536zm-.063.863-.002.536.501.002.036-.499-.534-.039zm-4.242-.021.003-.536-.699-.003.178.676.518-.137zm.607.748-.263.466.002.001.261-.468zm3.253-.183v-.536h-.107l-.098.041.206.495zm.282 0 .534.039.043-.575h-.577v.536zm-1.613-1.523c-.004-.387-.094-.803-.406-1.087l-.72.794c-.006-.005.006.001.021.047a.87.87 0 0 1 .033.257l1.071-.011zm-.402-1.082c-.281-.261-.65-.347-1.013-.347v1.071c.208 0 .272.05.284.061l.729-.785zm-1.013-.348c-.399 0-.77.125-1.06.409l.75.766c.059-.058.144-.103.31-.103v-1.072zm-1.056.406a1.63 1.63 0 0 0-.481.923l-.001.009 1.057.174a.568.568 0 0 1 .166-.334l-.742-.773zm.044 1.555 1.889.01.006-1.071-1.889-.011-.006 1.071zm3.618 1.893c-.118.089-.404.213-.948.333l.23 1.046c.565-.125 1.05-.287 1.365-.525l-.647-.854zm-.951.334a6.544 6.544 0 0 1-1.496.175h-.002v1.071c.566 0 1.145-.068 1.735-.202l-.236-1.045zm-1.498.175c-.505 0-.921-.024-1.252-.068l-.143 1.062c.394.053.861.078 1.395.078v-1.071zm-1.252-.069a4.79 4.79 0 0 1-1.004-.247l.034.011-.357 1.01a5.96 5.96 0 0 0 1.184.288l.143-1.062zm-.966-.234a2.82 2.82 0 0 1-.772-.408l-.652.85c.305.234.661.42 1.058.565l.365-1.007zm-.766-.403a1.726 1.726 0 0 1-.461-.578l-.004-.01-.958.479c.186.377.442.694.753.945l.005.004.666-.84zm-.464-.586c-.113-.228-.18-.521-.18-.897h-1.071c0 .502.09.965.29 1.372l.96-.475zm-.18-.898c0-.377.068-.71.196-1.006l-.983-.426a3.57 3.57 0 0 0-.285 1.432h1.071zm.196-1.005c.135-.311.3-.542.487-.707l-.713-.8a3.036 3.036 0 0 0-.757 1.082l.983.426zm.488-.708c.576-.513 1.454-.811 2.719-.811v-1.071c-1.419 0-2.591.333-3.432 1.083l.713.799zm2.719-.811a4.08 4.08 0 0 1 1.611.323l.418-.986a5.069 5.069 0 0 0-2.01-.409h-.021.001v1.071zm1.606.321c.474.207.78.5.961.873l.963-.468c-.307-.632-.82-1.092-1.497-1.387l-.428.982zm.963.877c.1.202.154.432.154.699h1.071c0-.417-.086-.811-.265-1.174l-.96.474zm.156.659-.063.863 1.068.078.063-.863-1.068-.077zm.474.367-4.242-.021-.005 1.071 4.242.021.005-1.071zm-4.763.651c.126.475.432.834.862 1.078l.527-.933c-.212-.12-.31-.258-.352-.418l-1.036.274zm.863 1.079c.434.243.978.34 1.585.34v-1.071c-.509 0-.848-.084-1.062-.204l-.523.935zm1.585.34c.651 0 1.367-.176 2.136-.496l-.412-.989c-.688.287-1.26.414-1.724.414v1.071zm1.93-.455h.283v-1.071h-.282v1.071zm-.251-.576-.1 1.329 1.068.08.099-1.329-1.068-.08z"/></symbol><symbol id="icon-git-hub" viewBox="0 0 32 32"><path d="M16 0C7.211 0 0 7.211 0 16c0 7.499 5.262 14.312 12.25 16v-5.293a3.921 3.921 0 0 1-2.062-.06l.028.007c-.946-.278-1.714-.909-2.285-1.869-.363-.613-1.008-1.28-1.68-1.23l-.165-1.867c1.454-.125 2.71.886 3.456 2.139.333.558.715.885 1.205 1.029.472.141.981.074 1.573-.136.149-1.186.693-1.629 1.104-2.256-4.168-.621-5.829-2.832-6.488-4.576-.874-2.318-.405-5.213 1.139-7.043.03-.035.085-.128.064-.192-.709-2.141.154-3.91.186-4.098.818.24.95-.243 3.552 1.336l.448.27c.189.112.128.048.317.032a13.246 13.246 0 0 1 3.349-.469h.01c1.136.014 2.272.176 3.403.483l.146.016c-.013-.003.04-.01.128-.062 3.248-1.968 3.131-1.325 4.003-1.608.032.189.882 1.987.182 4.099-.096.291 2.816 2.957 1.202 7.235-.659 1.744-2.32 3.957-6.486 4.578.534.816 1.176 1.248 1.173 2.928v6.606c6.986-1.688 12.25-8.501 12.25-16 0-8.789-7.211-16-16-16z"/></symbol><symbol id="icon-facebook" viewBox="0 0 16 32"><path d="M14.143 15.971H10.11v14.865H3.998V15.971H1.092v-5.222h2.906V7.367c0-2.417 1.142-6.204 6.167-6.204l4.527.019v5.072h-3.284c-.538 0-1.297.272-1.297 1.425v3.073h4.567l-.534 5.219z"/></symbol><symbol id="icon-telegram" viewBox="0 0 44 32"><path d="m17.342 21.048-.674 8.86c.966 0 1.384-.388 1.886-.852l4.526-4.04 9.38 6.414c1.72.894 2.934.422 3.398-1.478L42.016 3.02c.546-2.374-.92-3.302-2.594-2.72L3.226 13.234C.756 14.13.794 15.414 2.808 16l9.252 2.684L33.554 6.132c1.012-.626 1.932-.28 1.174.346l-17.386 14.57z"/></symbol><symbol id="icon-burger" viewBox="0 0 32 32"><path stroke="#fff" style="stroke:var(--color1,#fff)" stroke-linecap="round" stroke-width="2" d="M6 10h20M6 16h20M6 22h20"/></symbol><symbol id="icon-cross" viewBox="0 0 32 32"><path d="M23.884 6.706 16 14.59 8.116 6.706a.995.995 0 0 0-1.38.031 1 1 0 0 0-.031 1.38l7.88 7.884-7.882 7.882a1.002 1.002 0 0 0-.018 1.427.998.998 0 0 0 1.427-.015l7.886-7.882 7.884 7.884a1 1 0 0 0 1.38-.03 1 1 0 0 0 .03-1.38l-7.884-7.884 7.884-7.886a1.002 1.002 0 0 0 .018-1.427.998.998 0 0 0-1.427.015v.002z"/></symbol><symbol id="icon-instagram" viewBox="0 0 32 32"><path d="M16 2.881c4.275 0 4.781.019 6.462.094 1.563.069 2.406.331 2.969.55a4.952 4.952 0 0 1 1.837 1.194 5.015 5.015 0 0 1 1.2 1.838c.219.563.481 1.412.55 2.969.075 1.688.094 2.194.094 6.463s-.019 4.781-.094 6.463c-.069 1.563-.331 2.406-.55 2.969a4.94 4.94 0 0 1-1.194 1.837 5.02 5.02 0 0 1-1.837 1.2c-.563.219-1.413.481-2.969.55-1.688.075-2.194.094-6.463.094s-4.781-.019-6.463-.094c-1.563-.069-2.406-.331-2.969-.55a4.952 4.952 0 0 1-1.838-1.194 5.02 5.02 0 0 1-1.2-1.837c-.219-.563-.481-1.413-.55-2.969-.075-1.688-.094-2.194-.094-6.463s.019-4.781.094-6.463c.069-1.563.331-2.406.55-2.969a4.964 4.964 0 0 1 1.194-1.838 5.015 5.015 0 0 1 1.838-1.2c.563-.219 1.412-.481 2.969-.55 1.681-.075 2.188-.094 6.463-.094zM16 0c-4.344 0-4.887.019-6.594.094-1.7.075-2.869.35-3.881.744-1.056.412-1.95.956-2.837 1.85a7.833 7.833 0 0 0-1.85 2.831C.444 6.538.169 7.7.094 9.4.019 11.113 0 11.656 0 16s.019 4.887.094 6.594c.075 1.7.35 2.869.744 3.881.413 1.056.956 1.95 1.85 2.837a7.82 7.82 0 0 0 2.831 1.844c1.019.394 2.181.669 3.881.744 1.706.075 2.25.094 6.594.094s4.888-.019 6.594-.094c1.7-.075 2.869-.35 3.881-.744 1.05-.406 1.944-.956 2.831-1.844s1.438-1.781 1.844-2.831c.394-1.019.669-2.181.744-3.881.075-1.706.094-2.25.094-6.594s-.019-4.887-.094-6.594c-.075-1.7-.35-2.869-.744-3.881a7.506 7.506 0 0 0-1.831-2.844A7.82 7.82 0 0 0 26.482.843C25.463.449 24.301.174 22.601.099c-1.712-.081-2.256-.1-6.6-.1z"/><path d="M16 7.781c-4.537 0-8.219 3.681-8.219 8.219s3.681 8.219 8.219 8.219 8.219-3.681 8.219-8.219A8.221 8.221 0 0 0 16 7.781zm0 13.55a5.331 5.331 0 1 1 0-10.663 5.331 5.331 0 0 1 0 10.663zM26.462 7.456a1.919 1.919 0 1 1-3.838 0 1.919 1.919 0 0 1 3.838 0z"/></symbol><symbol id="icon-arrow-btn-1" viewBox="0 0 32 32"><path stroke-linejoin="round" stroke-linecap="round" stroke-width="5.333" d="M10.667 5.333 23.867 16l-13.2 10.667"/></symbol><symbol id="icon-dots-sm-1" viewBox="0 0 205 32"><path d="M155.332 29.617c0 .982-.764 1.779-1.706 1.779s-1.706-.796-1.706-1.779c0-.982.764-1.779 1.706-1.779s1.706.796 1.706 1.779zM159.029 27.245c0 .982-.764 1.779-1.706 1.779s-1.706-.796-1.706-1.779c0-.982.764-1.779 1.706-1.779s1.706.796 1.706 1.779zM163.292 24.578c0 .982-.764 1.779-1.706 1.779s-1.706-.796-1.706-1.779c0-.982.764-1.779 1.706-1.779s1.706.796 1.706 1.779zM167.273 22.207c0 .982-.764 1.779-1.706 1.779s-1.706-.796-1.706-1.779c0-.982.764-1.779 1.706-1.779s1.706.796 1.706 1.779zM164.998 28.431c0 .982-.764 1.779-1.706 1.779s-1.706-.796-1.706-1.779c0-.982.764-1.779 1.706-1.779s1.706.796 1.706 1.779zM168.694 26.06c0 .982-.764 1.779-1.706 1.779s-1.706-.796-1.706-1.779c0-.982.764-1.779 1.706-1.779s1.706.796 1.706 1.779zM172.957 23.392c0 .982-.764 1.779-1.706 1.779s-1.706-.796-1.706-1.779c0-.982.764-1.779 1.706-1.779s1.706.796 1.706 1.779zM176.939 21.021c0 .982-.764 1.779-1.706 1.779s-1.706-.796-1.706-1.779c0-.982.764-1.779 1.706-1.779s1.706.796 1.706 1.779zM173.243 27.542c0 .982-.764 1.779-1.706 1.779s-1.706-.796-1.706-1.779c0-.982.764-1.779 1.706-1.779s1.706.796 1.706 1.779zM176.94 25.171c0 .982-.764 1.779-1.706 1.779s-1.706-.796-1.706-1.779c0-.982.764-1.779 1.706-1.779s1.706.796 1.706 1.779zM181.204 22.503c0 .982-.764 1.779-1.706 1.779s-1.706-.796-1.706-1.779c0-.982.764-1.779 1.706-1.779s1.706.796 1.706 1.779zM185.183 20.132c0 .982-.764 1.779-1.706 1.779s-1.706-.796-1.706-1.779c0-.982.764-1.779 1.706-1.779s1.706.796 1.706 1.779zM181.203 26.356c0 .982-.764 1.779-1.706 1.779s-1.706-.796-1.706-1.779c0-.982.764-1.779 1.706-1.779s1.706.796 1.706 1.779zM184.897 23.985c0 .982-.764 1.779-1.706 1.779s-1.706-.796-1.706-1.779c0-.982.764-1.779 1.706-1.779s1.706.796 1.706 1.779zM189.162 21.318c0 .982-.764 1.779-1.706 1.779s-1.706-.796-1.706-1.779c0-.982.764-1.779 1.706-1.779s1.706.796 1.706 1.779zM193.142 18.947c0 .982-.764 1.779-1.706 1.779s-1.706-.796-1.706-1.779c0-.982.764-1.779 1.706-1.779s1.706.796 1.706 1.779zM183.762 29.617c0 .982-.764 1.779-1.706 1.779s-1.706-.796-1.706-1.779c0-.982.764-1.779 1.706-1.779s1.706.796 1.706 1.779zM187.458 27.245c0 .982-.764 1.779-1.706 1.779s-1.706-.796-1.706-1.779c0-.982.764-1.779 1.706-1.779s1.706.796 1.706 1.779zM192.575 29.913c0 .982-.764 1.779-1.706 1.779s-1.706-.796-1.706-1.779c0-.982.764-1.779 1.706-1.779s1.706.796 1.706 1.779zM191.723 24.578c0 .982-.764 1.779-1.706 1.779s-1.706-.796-1.706-1.779c0-.982.764-1.779 1.706-1.779s1.706.796 1.706 1.779zM196.84 27.245c0 .982-.764 1.779-1.706 1.779s-1.706-.796-1.706-1.779c0-.982.764-1.779 1.706-1.779s1.706.796 1.706 1.779zM200.82 29.913c0 .982-.764 1.779-1.706 1.779s-1.706-.796-1.706-1.779c0-.982.764-1.779 1.706-1.779s1.706.796 1.706 1.779zM195.702 22.207c0 .982-.764 1.779-1.706 1.779s-1.706-.796-1.706-1.779c0-.982.764-1.779 1.706-1.779s1.706.796 1.706 1.779zM200.82 24.874c0 .982-.764 1.779-1.706 1.779s-1.706-.796-1.706-1.779c0-.982.764-1.779 1.706-1.779s1.706.796 1.706 1.779zM204.8 27.542c0 .982-.764 1.779-1.706 1.779s-1.706-.796-1.706-1.779c0-.982.764-1.779 1.706-1.779s1.706.796 1.706 1.779zM137.992 10.055c0 .982-.764 1.779-1.706 1.779s-1.706-.796-1.706-1.779c0-.982.764-1.779 1.706-1.779s1.706.796 1.706 1.779zM141.688 7.684c0 .982-.764 1.779-1.706 1.779s-1.706-.796-1.706-1.779c0-.982.764-1.779 1.706-1.779s1.706.796 1.706 1.779zM145.953 5.016c0 .982-.764 1.779-1.706 1.779s-1.706-.796-1.706-1.779c0-.982.764-1.779 1.706-1.779s1.706.796 1.706 1.779zM149.932 2.645c0 .982-.764 1.779-1.706 1.779s-1.706-.796-1.706-1.779c0-.982.764-1.779 1.706-1.779s1.706.796 1.706 1.779zM130.884 9.758c0 .982-.764 1.779-1.706 1.779s-1.706-.796-1.706-1.779c0-.982.764-1.779 1.706-1.779s1.706.796 1.706 1.779zM134.579 7.387c0 .982-.764 1.779-1.706 1.779s-1.706-.796-1.706-1.779c0-.982.764-1.779 1.706-1.779s1.706.796 1.706 1.779zM138.844 4.72c0 .982-.764 1.779-1.706 1.779s-1.706-.796-1.706-1.779c0-.982.764-1.779 1.706-1.779s1.706.796 1.706 1.779zM142.824 2.349c0 .982-.764 1.779-1.706 1.779s-1.706-.796-1.706-1.779c0-.982.764-1.779 1.706-1.779s1.706.796 1.706 1.779zM146.804 29.617c0 .982-.764 1.779-1.706 1.779s-1.706-.796-1.706-1.779c0-.982.764-1.779 1.706-1.779s1.706.796 1.706 1.779zM150.499 27.245c0 .982-.764 1.779-1.706 1.779s-1.706-.796-1.706-1.779c0-.982.764-1.779 1.706-1.779s1.706.796 1.706 1.779zM154.763 24.578c0 .982-.764 1.779-1.706 1.779s-1.706-.796-1.706-1.779c0-.982.764-1.779 1.706-1.779s1.706.796 1.706 1.779zM158.744 22.207c0 .982-.764 1.779-1.706 1.779s-1.706-.796-1.706-1.779c0-.982.764-1.779 1.706-1.779s1.706.796 1.706 1.779zM142.256 27.839c0 .982-.764 1.779-1.706 1.779s-1.706-.796-1.706-1.779c0-.982.764-1.779 1.706-1.779s1.706.796 1.706 1.779zM145.951 25.468c0 .982-.764 1.779-1.706 1.779s-1.706-.796-1.706-1.779c0-.982.764-1.779 1.706-1.779s1.706.796 1.706 1.779zM150.215 22.799c0 .982-.764 1.779-1.706 1.779s-1.706-.796-1.706-1.779c0-.982.764-1.779 1.706-1.779s1.706.796 1.706 1.779zM154.196 20.429c0 .982-.764 1.779-1.706 1.779s-1.706-.796-1.706-1.779c0-.982.764-1.779 1.706-1.779s1.706.796 1.706 1.779zM143.962 21.614c0 .982-.764 1.779-1.706 1.779s-1.706-.796-1.706-1.779c0-.982.764-1.779 1.706-1.779s1.706.796 1.706 1.779zM147.656 19.243c0 .982-.764 1.779-1.706 1.779s-1.706-.796-1.706-1.779c0-.982.764-1.779 1.706-1.779s1.706.796 1.706 1.779zM151.922 16.575c0 .982-.764 1.779-1.706 1.779s-1.706-.796-1.706-1.779c0-.982.764-1.779 1.706-1.779s1.706.796 1.706 1.779zM155.901 14.204c0 .982-.764 1.779-1.706 1.779s-1.706-.796-1.706-1.779c0-.982.764-1.779 1.706-1.779s1.706.796 1.706 1.779zM143.962 11.24c0 .982-.764 1.779-1.706 1.779s-1.706-.796-1.706-1.779c0-.982.764-1.779 1.706-1.779s1.706.796 1.706 1.779zM147.656 8.869c0 .982-.764 1.779-1.706 1.779s-1.706-.796-1.706-1.779c0-.982.764-1.779 1.706-1.779s1.706.796 1.706 1.779zM151.922 6.202c0 .982-.764 1.779-1.706 1.779s-1.706-.796-1.706-1.779c0-.982.764-1.779 1.706-1.779s1.706.796 1.706 1.779zM155.901 3.83c0 .982-.764 1.779-1.706 1.779s-1.706-.796-1.706-1.779c0-.982.764-1.779 1.706-1.779s1.706.796 1.706 1.779zM143.108 16.872c0 .982-.764 1.779-1.706 1.779s-1.706-.796-1.706-1.779c0-.982.764-1.779 1.706-1.779s1.706.796 1.706 1.779zM146.804 14.5c0 .982-.764 1.779-1.706 1.779s-1.706-.796-1.706-1.779c0-.982.764-1.779 1.706-1.779s1.706.796 1.706 1.779zM151.068 11.834c0 .982-.764 1.779-1.706 1.779s-1.706-.796-1.706-1.779c0-.982.764-1.779 1.706-1.779s1.706.796 1.706 1.779zM155.048 9.462c0 .982-.764 1.779-1.706 1.779s-1.706-.796-1.706-1.779c0-.982.764-1.779 1.706-1.779s1.706.796 1.706 1.779zM125.198 8.276c0 .982-.764 1.779-1.706 1.779s-1.706-.796-1.706-1.779c0-.982.764-1.779 1.706-1.779s1.706.796 1.706 1.779zM128.895 5.905c0 .982-.764 1.779-1.706 1.779s-1.706-.796-1.706-1.779c0-.982.764-1.779 1.706-1.779s1.706.796 1.706 1.779zM133.159 3.238c0 .982-.764 1.779-1.706 1.779s-1.706-.796-1.706-1.779c0-.982.764-1.779 1.706-1.779s1.706.796 1.706 1.779z"/><path d="M131.169 10.054c.942 0 1.706-.796 1.706-1.778s-.764-1.779-1.706-1.779-1.706.796-1.706 1.779c0 .982.764 1.778 1.706 1.778zM52.732 21.475c.145.985-.504 1.906-1.449 2.057s-1.828-.525-1.973-1.51c-.145-.985.504-1.906 1.449-2.057s1.828.525 1.973 1.51zM56.09 18.504c.145.985-.504 1.906-1.449 2.057s-1.828-.525-1.973-1.51c-.145-.985.504-1.906 1.449-2.057s1.828.525 1.973 1.51zM59.974 15.144c.145.985-.504 1.906-1.449 2.057s-1.828-.525-1.973-1.51c-.145-.985.504-1.906 1.449-2.057s1.828.525 1.973 1.51zM63.617 12.128c.145.985-.504 1.906-1.449 2.057s-1.828-.525-1.973-1.51c-.145-.985.504-1.906 1.449-2.057s1.828.525 1.973 1.51zM2.132 19.067c0 .997-.779 1.805-1.741 1.805s-1.741-.808-1.741-1.805c0-.997.779-1.805 1.741-1.805s1.741.808 1.741 1.805zM6.485 16.36c0 .997-.779 1.805-1.741 1.805s-1.741-.808-1.741-1.805c0-.997.779-1.805 1.741-1.805s1.741.808 1.741 1.805zM10.546 13.953c0 .997-.779 1.805-1.741 1.805s-1.741-.808-1.741-1.805c0-.997.779-1.805 1.741-1.805s1.741.808 1.741 1.805zM.102 25.984c0 .997-.779 1.805-1.741 1.805s-1.741-.808-1.741-1.805c0-.997.779-1.805 1.741-1.805s1.741.808 1.741 1.805zM3.874 23.578c0 .997-.779 1.805-1.741 1.805S.392 24.575.392 23.578c0-.997.779-1.805 1.741-1.805s1.741.808 1.741 1.805zM8.227 20.871c0 .997-.779 1.805-1.741 1.805s-1.741-.808-1.741-1.805c0-.997.779-1.805 1.741-1.805s1.741.808 1.741 1.805zM12.287 18.465c0 .997-.779 1.805-1.741 1.805s-1.741-.808-1.741-1.805c0-.997.779-1.805 1.741-1.805s1.741.808 1.741 1.805zM4.453 28.39c0 .997-.779 1.805-1.741 1.805S.971 29.387.971 28.39c0-.997.779-1.805 1.741-1.805s1.741.808 1.741 1.805zM8.225 25.984c0 .997-.779 1.805-1.741 1.805s-1.741-.808-1.741-1.805c0-.997.779-1.805 1.741-1.805s1.741.808 1.741 1.805zM12.577 23.277c0 .997-.779 1.805-1.741 1.805s-1.741-.808-1.741-1.805c0-.997.779-1.805 1.741-1.805s1.741.808 1.741 1.805zM16.637 20.871c0 .997-.779 1.805-1.741 1.805s-1.741-.808-1.741-1.805c0-.997.779-1.805 1.741-1.805s1.741.808 1.741 1.805zM9.384 29.895c0 .997-.779 1.805-1.741 1.805s-1.741-.808-1.741-1.805c0-.997.779-1.805 1.741-1.805s1.741.808 1.741 1.805zM13.156 27.488c0 .997-.779 1.805-1.741 1.805s-1.741-.808-1.741-1.805c0-.997.779-1.805 1.741-1.805s1.741.808 1.741 1.805zM17.509 24.781c0 .997-.779 1.805-1.741 1.805s-1.741-.808-1.741-1.805c0-.997.779-1.805 1.741-1.805s1.741.808 1.741 1.805zM21.569 22.375c0 .997-.779 1.805-1.741 1.805s-1.741-.808-1.741-1.805c0-.997.779-1.805 1.741-1.805s1.741.808 1.741 1.805z"/><path d="M15.768 30.196c0 .997-.779 1.805-1.741 1.805s-1.741-.808-1.741-1.805c0-.997.779-1.805 1.741-1.805s1.741.808 1.741 1.805zM19.539 27.789c0 .997-.779 1.805-1.741 1.805s-1.741-.808-1.741-1.805c0-.997.779-1.805 1.741-1.805s1.741.808 1.741 1.805zM23.891 25.082c0 .997-.779 1.805-1.741 1.805s-1.741-.808-1.741-1.805c0-.997.779-1.805 1.741-1.805s1.741.808 1.741 1.805zM27.952 22.676c0 .997-.779 1.805-1.741 1.805s-1.741-.808-1.741-1.805c0-.997.779-1.805 1.741-1.805s1.741.808 1.741 1.805zM23.311 30.195c0 .997-.779 1.805-1.741 1.805s-1.741-.808-1.741-1.805c0-.997.779-1.805 1.741-1.805s1.741.808 1.741 1.805zM27.082 27.789c0 .997-.779 1.805-1.741 1.805s-1.741-.808-1.741-1.805c0-.997.779-1.805 1.741-1.805s1.741.808 1.741 1.805zM31.434 25.082c0 .997-.779 1.805-1.741 1.805s-1.741-.808-1.741-1.805c0-.997.779-1.805 1.741-1.805s1.741.808 1.741 1.805zM35.496 22.676c0 .997-.779 1.805-1.741 1.805s-1.741-.808-1.741-1.805c0-.997.779-1.805 1.741-1.805s1.741.808 1.741 1.805z"/><path d="M29.692 29.894c0 .997-.779 1.805-1.741 1.805s-1.741-.808-1.741-1.805c0-.997.779-1.805 1.741-1.805s1.741.808 1.741 1.805zM33.463 27.488c0 .997-.779 1.805-1.741 1.805s-1.741-.808-1.741-1.805c0-.997.779-1.805 1.741-1.805s1.741.808 1.741 1.805zM37.816 24.781c0 .997-.779 1.805-1.741 1.805s-1.741-.808-1.741-1.805c0-.997.779-1.805 1.741-1.805s1.741.808 1.741 1.805zM41.876 22.375c0 .997-.779 1.805-1.741 1.805s-1.741-.808-1.741-1.805c0-.997.779-1.805 1.741-1.805s1.741.808 1.741 1.805zM36.945 29.594c0 .997-.779 1.805-1.741 1.805s-1.741-.808-1.741-1.805c0-.997.779-1.805 1.741-1.805s1.741.808 1.741 1.805zM40.716 27.187c0 .997-.779 1.805-1.741 1.805s-1.741-.808-1.741-1.805c0-.997.779-1.805 1.741-1.805s1.741.808 1.741 1.805zM45.068 24.481c0 .997-.779 1.805-1.741 1.805s-1.741-.808-1.741-1.805c0-.997.779-1.805 1.741-1.805s1.741.808 1.741 1.805zM49.129 22.074c0 .997-.779 1.805-1.741 1.805s-1.741-.808-1.741-1.805c0-.997.779-1.805 1.741-1.805s1.741.808 1.741 1.805z"/><path d="M43.617 21.773c0 .997-.779 1.805-1.741 1.805s-1.741-.808-1.741-1.805c0-.997.779-1.805 1.741-1.805s1.741.808 1.741 1.805zM47.388 19.367c0 .997-.779 1.805-1.741 1.805s-1.741-.808-1.741-1.805c0-.997.779-1.805 1.741-1.805s1.741.808 1.741 1.805zM51.74 16.66c0 .997-.779 1.805-1.741 1.805s-1.741-.808-1.741-1.805c0-.997.779-1.805 1.741-1.805s1.741.808 1.741 1.805zM55.802 14.254c0 .997-.779 1.805-1.741 1.805s-1.741-.808-1.741-1.805c0-.997.779-1.805 1.741-1.805s1.741.808 1.741 1.805z"/></symbol><symbol id="icon-dots-md-1" viewBox="0 0 361 32"><path d="M309.949 29.706c0 .999-.789 1.808-1.762 1.808s-1.762-.809-1.762-1.808.789-1.808 1.762-1.808 1.762.809 1.762 1.808zM313.767 27.295c0 .999-.789 1.808-1.762 1.808s-1.762-.809-1.762-1.808.789-1.808 1.762-1.808 1.762.809 1.762 1.808zM318.172 24.583c0 .999-.789 1.808-1.762 1.808s-1.762-.809-1.762-1.808.789-1.808 1.762-1.808 1.762.809 1.762 1.808zM322.284 22.172c0 .999-.789 1.808-1.762 1.808s-1.762-.809-1.762-1.808.789-1.808 1.762-1.808 1.762.809 1.762 1.808zM319.935 28.5c0 .999-.789 1.808-1.762 1.808s-1.762-.809-1.762-1.808.789-1.808 1.762-1.808 1.762.809 1.762 1.808zM323.752 26.09c0 .999-.789 1.808-1.762 1.808s-1.762-.809-1.762-1.808.789-1.808 1.762-1.808 1.762.809 1.762 1.808zM328.158 23.378c0 .999-.789 1.808-1.762 1.808s-1.762-.809-1.762-1.808.789-1.808 1.762-1.808 1.762.809 1.762 1.808zM332.27 20.967c0 .999-.789 1.808-1.762 1.808s-1.762-.809-1.762-1.808.789-1.808 1.762-1.808 1.762.809 1.762 1.808zM328.452 27.596c0 .999-.789 1.808-1.762 1.808s-1.762-.809-1.762-1.808.789-1.808 1.762-1.808 1.762.809 1.762 1.808zM332.27 25.185c0 .999-.789 1.808-1.762 1.808s-1.762-.809-1.762-1.808.789-1.808 1.762-1.808 1.762.809 1.762 1.808zM336.675 22.473c0 .999-.789 1.808-1.762 1.808s-1.762-.809-1.762-1.808.789-1.808 1.762-1.808 1.762.809 1.762 1.808zM340.786 20.063c0 .999-.789 1.808-1.762 1.808s-1.762-.809-1.762-1.808.789-1.808 1.762-1.808 1.762.809 1.762 1.808zM336.675 26.391c0 .999-.789 1.808-1.762 1.808s-1.762-.809-1.762-1.808.789-1.808 1.762-1.808 1.762.809 1.762 1.808zM340.493 23.98c0 .999-.789 1.808-1.762 1.808s-1.762-.809-1.762-1.808.789-1.808 1.762-1.808 1.762.809 1.762 1.808zM344.898 21.268c0 .999-.789 1.808-1.762 1.808s-1.762-.809-1.762-1.808.789-1.808 1.762-1.808 1.762.809 1.762 1.808zM349.01 18.858c0 .999-.789 1.808-1.762 1.808s-1.762-.809-1.762-1.808.789-1.808 1.762-1.808 1.762.809 1.762 1.808zM339.318 29.706c0 .999-.789 1.808-1.762 1.808s-1.762-.809-1.762-1.808.789-1.808 1.762-1.808 1.762.809 1.762 1.808zM343.136 27.295c0 .999-.789 1.808-1.762 1.808s-1.762-.809-1.762-1.808.789-1.808 1.762-1.808 1.762.809 1.762 1.808zM348.422 30.007c0 .999-.789 1.808-1.762 1.808s-1.762-.809-1.762-1.808.789-1.808 1.762-1.808 1.762.809 1.762 1.808zM347.541 24.583c0 .999-.789 1.808-1.762 1.808s-1.762-.809-1.762-1.808.789-1.808 1.762-1.808 1.762.809 1.762 1.808zM352.828 27.295c0 .999-.789 1.808-1.762 1.808s-1.762-.809-1.762-1.808.789-1.808 1.762-1.808 1.762.809 1.762 1.808zM356.939 30.007c0 .999-.789 1.808-1.762 1.808s-1.762-.809-1.762-1.808.789-1.808 1.762-1.808 1.762.809 1.762 1.808zM351.653 22.172c0 .999-.789 1.808-1.762 1.808s-1.762-.809-1.762-1.808.789-1.808 1.762-1.808 1.762.809 1.762 1.808zM356.939 24.884c0 .999-.789 1.808-1.762 1.808s-1.762-.809-1.762-1.808.789-1.808 1.762-1.808 1.762.809 1.762 1.808zM361.051 27.596c0 .999-.789 1.808-1.762 1.808s-1.762-.809-1.762-1.808.789-1.808 1.762-1.808 1.762.809 1.762 1.808zM292.034 9.818c0 .999-.789 1.808-1.762 1.808s-1.762-.809-1.762-1.808.789-1.808 1.762-1.808 1.762.809 1.762 1.808zM295.852 7.408c0 .999-.789 1.808-1.762 1.808s-1.762-.809-1.762-1.808.789-1.808 1.762-1.808 1.762.809 1.762 1.808zM300.258 4.696c0 .999-.789 1.808-1.762 1.808s-1.762-.809-1.762-1.808.789-1.808 1.762-1.808 1.762.809 1.762 1.808zM304.368 2.285c0 .999-.789 1.808-1.762 1.808s-1.762-.809-1.762-1.808.789-1.808 1.762-1.808 1.762.809 1.762 1.808zM284.692 9.516c0 .999-.789 1.808-1.762 1.808s-1.762-.809-1.762-1.808.789-1.808 1.762-1.808 1.762.809 1.762 1.808zM288.51 7.106c0 .999-.789 1.808-1.762 1.808s-1.762-.809-1.762-1.808.789-1.808 1.762-1.808 1.762.809 1.762 1.808zM292.915 4.394c0 .999-.789 1.808-1.762 1.808s-1.762-.809-1.762-1.808.789-1.808 1.762-1.808 1.762.809 1.762 1.808zM297.027 1.984c0 .999-.789 1.808-1.762 1.808s-1.762-.809-1.762-1.808.789-1.808 1.762-1.808 1.762.809 1.762 1.808zM301.139 29.706c0 .999-.789 1.808-1.762 1.808s-1.762-.809-1.762-1.808.789-1.808 1.762-1.808 1.762.809 1.762 1.808zM304.956 27.295c0 .999-.789 1.808-1.762 1.808s-1.762-.809-1.762-1.808.789-1.808 1.762-1.808 1.762.809 1.762 1.808zM309.362 24.583c0 .999-.789 1.808-1.762 1.808s-1.762-.809-1.762-1.808.789-1.808 1.762-1.808 1.762.809 1.762 1.808zM313.474 22.172c0 .999-.789 1.808-1.762 1.808s-1.762-.809-1.762-1.808.789-1.808 1.762-1.808 1.762.809 1.762 1.808zM296.44 27.898c0 .999-.789 1.808-1.762 1.808s-1.762-.809-1.762-1.808.789-1.808 1.762-1.808 1.762.809 1.762 1.808zM300.258 25.487c0 .999-.789 1.808-1.762 1.808s-1.762-.809-1.762-1.808.789-1.808 1.762-1.808 1.762.809 1.762 1.808zM304.663 22.775c0 .999-.789 1.808-1.762 1.808s-1.762-.809-1.762-1.808.789-1.808 1.762-1.808 1.762.809 1.762 1.808zM308.775 20.365c0 .999-.789 1.808-1.762 1.808s-1.762-.809-1.762-1.808.789-1.808 1.762-1.808 1.762.809 1.762 1.808zM298.201 21.57c0 .999-.789 1.808-1.762 1.808s-1.762-.809-1.762-1.808.789-1.808 1.762-1.808 1.762.809 1.762 1.808zM302.019 19.16c0 .999-.789 1.808-1.762 1.808s-1.762-.809-1.762-1.808.789-1.808 1.762-1.808 1.762.809 1.762 1.808zM306.425 16.447c0 .999-.789 1.808-1.762 1.808s-1.762-.809-1.762-1.808.789-1.808 1.762-1.808 1.762.809 1.762 1.808zM310.536 14.037c0 .999-.789 1.808-1.762 1.808s-1.762-.809-1.762-1.808.789-1.808 1.762-1.808 1.762.809 1.762 1.808zM298.201 11.024c0 .999-.789 1.808-1.762 1.808s-1.762-.809-1.762-1.808.789-1.808 1.762-1.808 1.762.809 1.762 1.808zM302.019 8.613c0 .999-.789 1.808-1.762 1.808s-1.762-.809-1.762-1.808.789-1.808 1.762-1.808 1.762.809 1.762 1.808zM306.425 5.901c0 .999-.789 1.808-1.762 1.808s-1.762-.809-1.762-1.808.789-1.808 1.762-1.808 1.762.809 1.762 1.808zM310.536 3.49c0 .999-.789 1.808-1.762 1.808s-1.762-.809-1.762-1.808.789-1.808 1.762-1.808 1.762.809 1.762 1.808zM297.321 16.749c0 .999-.789 1.808-1.762 1.808s-1.762-.809-1.762-1.808.789-1.808 1.762-1.808 1.762.809 1.762 1.808zM301.139 14.338c0 .999-.789 1.808-1.762 1.808s-1.762-.809-1.762-1.808.789-1.808 1.762-1.808 1.762.809 1.762 1.808zM305.544 11.626c0 .999-.789 1.808-1.762 1.808s-1.762-.809-1.762-1.808.789-1.808 1.762-1.808 1.762.809 1.762 1.808zM309.656 9.216c0 .999-.789 1.808-1.762 1.808s-1.762-.809-1.762-1.808.789-1.808 1.762-1.808 1.762.809 1.762 1.808zM278.819 8.01c0 .999-.789 1.808-1.762 1.808s-1.762-.809-1.762-1.808.789-1.808 1.762-1.808 1.762.809 1.762 1.808zM282.637 5.6c0 .999-.789 1.808-1.762 1.808s-1.762-.809-1.762-1.808.789-1.808 1.762-1.808 1.762.809 1.762 1.808zM287.042 2.888c0 .999-.789 1.808-1.762 1.808s-1.762-.809-1.762-1.808.789-1.808 1.762-1.808 1.762.809 1.762 1.808z"/><path d="M284.986 9.818c.973 0 1.762-.809 1.762-1.808s-.789-1.808-1.762-1.808-1.762.809-1.762 1.808.789 1.808 1.762 1.808zM3.525 28.466c0 .999-.789 1.808-1.762 1.808S.001 29.465.001 28.466s.789-1.808 1.762-1.808 1.762.809 1.762 1.808zM7.342 26.055c0 .999-.789 1.808-1.762 1.808s-1.762-.809-1.762-1.808.789-1.808 1.762-1.808 1.762.809 1.762 1.808zM11.748 23.344c0 .999-.789 1.808-1.762 1.808s-1.762-.809-1.762-1.808.789-1.808 1.762-1.808 1.762.809 1.762 1.808zM15.859 20.933c0 .999-.789 1.808-1.762 1.808s-1.762-.809-1.762-1.808.789-1.808 1.762-1.808 1.762.809 1.762 1.808zM25.845 29.37c0 .999-.789 1.808-1.762 1.808s-1.762-.809-1.762-1.808.789-1.808 1.762-1.808 1.762.809 1.762 1.808zM29.663 26.959c0 .999-.789 1.808-1.762 1.808s-1.762-.809-1.762-1.808.789-1.808 1.762-1.808 1.762.809 1.762 1.808zM34.068 24.248c0 .999-.789 1.808-1.762 1.808s-1.762-.809-1.762-1.808.789-1.808 1.762-1.808 1.762.809 1.762 1.808zM38.179 21.837c0 .999-.789 1.808-1.762 1.808s-1.762-.809-1.762-1.808.789-1.808 1.762-1.808 1.762.809 1.762 1.808zM34.949 28.164c0 .999-.789 1.808-1.762 1.808s-1.762-.809-1.762-1.808.789-1.808 1.762-1.808 1.762.809 1.762 1.808zM38.767 25.754c0 .999-.789 1.808-1.762 1.808s-1.762-.809-1.762-1.808.789-1.808 1.762-1.808 1.762.809 1.762 1.808zM43.172 23.042c0 .999-.789 1.808-1.762 1.808s-1.762-.809-1.762-1.808.789-1.808 1.762-1.808 1.762.809 1.762 1.808zM47.284 20.631c0 .999-.789 1.808-1.762 1.808s-1.762-.809-1.762-1.808.789-1.808 1.762-1.808 1.762.809 1.762 1.808zM51.689 17.016c0 .999-.789 1.808-1.762 1.808s-1.762-.809-1.762-1.808.789-1.808 1.762-1.808 1.762.809 1.762 1.808zM42.291 19.125c0 .999-.789 1.808-1.762 1.808s-1.762-.809-1.762-1.808.789-1.808 1.762-1.808 1.762.809 1.762 1.808zM17.622 29.069c0 .999-.789 1.808-1.762 1.808s-1.762-.809-1.762-1.808.789-1.808 1.762-1.808 1.762.809 1.762 1.808zM21.44 26.658c0 .999-.789 1.808-1.762 1.808s-1.762-.809-1.762-1.808.789-1.808 1.762-1.808 1.762.809 1.762 1.808zM25.845 23.946c0 .999-.789 1.808-1.762 1.808s-1.762-.809-1.762-1.808.789-1.808 1.762-1.808 1.762.809 1.762 1.808zM29.956 21.536c0 .999-.789 1.808-1.762 1.808s-1.762-.809-1.762-1.808.789-1.808 1.762-1.808 1.762.809 1.762 1.808zM10.28 28.767c0 .999-.789 1.808-1.762 1.808s-1.762-.809-1.762-1.808.789-1.808 1.762-1.808 1.762.809 1.762 1.808zM14.097 26.356c0 .999-.789 1.808-1.762 1.808s-1.762-.809-1.762-1.808.789-1.808 1.762-1.808 1.762.809 1.762 1.808z"/><path d="M18.503 23.645c0 .999-.789 1.808-1.762 1.808s-1.762-.809-1.762-1.808.789-1.808 1.762-1.808 1.762.809 1.762 1.808zM22.614 21.234c0 .999-.789 1.808-1.762 1.808s-1.762-.809-1.762-1.808.789-1.808 1.762-1.808 1.762.809 1.762 1.808z"/></symbol><symbol id="icon-dots-lg-1" viewBox="0 0 100 32"><path d="M45.691 25.73c0 .287-.218.519-.487.519s-.487-.232-.487-.519c0-.287.218-.519.487-.519s.487.232.487.519zM46.827 25.038c0 .287-.218.519-.487.519s-.487-.232-.487-.519c0-.287.218-.519.487-.519s.487.232.487.519zM44.798 27.633c0 .287-.218.519-.487.519s-.487-.232-.487-.519c0-.287.218-.519.487-.519s.487.232.487.519zM45.853 26.941c0 .287-.218.519-.487.519s-.487-.232-.487-.519c0-.287.218-.519.487-.519s.487.232.487.519zM47.07 26.163c0 .287-.218.519-.487.519s-.487-.232-.487-.519c0-.287.218-.519.487-.519s.487.232.487.519zM48.206 25.471c0 .287-.218.519-.487.519s-.487-.232-.487-.519c0-.287.218-.519.487-.519s.487.232.487.519z"/><path d="M46.583 27.72c0 .287-.218.519-.487.519s-.487-.232-.487-.519c0-.287.218-.519.487-.519s.487.232.487.519zM47.638 27.028c0 .287-.218.519-.487.519s-.487-.232-.487-.519c0-.287.218-.519.487-.519s.487.232.487.519zM48.856 26.249c0 .287-.218.519-.487.519s-.487-.232-.487-.519c0-.287.218-.519.487-.519s.487.232.487.519zM49.992 25.557c0 .287-.218.519-.487.519s-.487-.232-.487-.519c0-.287.218-.519.487-.519s.487.232.487.519zM48.693 27.72c0 .287-.218.519-.487.519s-.487-.232-.487-.519c0-.287.218-.519.487-.519s.487.232.487.519zM49.748 27.028c0 .287-.218.519-.487.519s-.487-.232-.487-.519c0-.287.218-.519.487-.519s.487.232.487.519zM50.966 26.249c0 .287-.218.519-.487.519s-.487-.232-.487-.519c0-.287.218-.519.487-.519s.487.232.487.519zM52.102 25.557c0 .287-.218.519-.487.519s-.487-.232-.487-.519c0-.287.218-.519.487-.519s.487.232.487.519z"/><path d="M50.479 27.633c0 .287-.218.519-.487.519s-.487-.232-.487-.519c0-.287.218-.519.487-.519s.487.232.487.519zM51.534 26.941c0 .287-.218.519-.487.519s-.487-.232-.487-.519c0-.287.218-.519.487-.519s.487.232.487.519zM52.751 26.163c0 .287-.218.519-.487.519s-.487-.232-.487-.519c0-.287.218-.519.487-.519s.487.232.487.519zM53.887 25.471c0 .287-.218.519-.487.519s-.487-.232-.487-.519c0-.287.218-.519.487-.519s.487.232.487.519zM52.508 27.547c0 .287-.218.519-.487.519s-.487-.232-.487-.519c0-.287.218-.519.487-.519s.487.232.487.519zM53.563 26.855c0 .287-.218.519-.487.519s-.487-.232-.487-.519c0-.287.218-.519.487-.519s.487.232.487.519zM54.78 26.076c0 .287-.218.519-.487.519s-.487-.232-.487-.519c0-.287.218-.519.487-.519s.487.232.487.519zM55.916 25.384c0 .287-.218.519-.487.519s-.487-.232-.487-.519c0-.287.218-.519.487-.519s.487.232.487.519z"/><path d="M54.374 25.298c0 .287-.218.519-.487.519s-.487-.232-.487-.519c0-.287.218-.519.487-.519s.487.232.487.519zM55.429 24.606c0 .287-.218.519-.487.519s-.487-.232-.487-.519c0-.287.218-.519.487-.519s.487.232.487.519zM56.647 23.827c0 .287-.218.519-.487.519s-.487-.232-.487-.519c0-.287.218-.519.487-.519s.487.232.487.519zM57.783 23.135c0 .287-.218.519-.487.519s-.487-.232-.487-.519c0-.287.218-.519.487-.519s.487.232.487.519z"/></symbol></defs></svg>