<svg aria-hidden="true" style="position: absolute; width: 0; height: 0; overflow: hidden;" version="1.1" xmlns="http://www.w3.org/2000/svg" xmlns:xlink="http://www.w3.org/1999/xlink">
<defs>
<symbol id="icon-weight" viewBox="0 0 32 32">
<path d="M14.178 0.547c-3.974 0.589-7.247 2.796-8.452 5.685-0.384 0.913-0.487 1.474-0.487 2.573 0.007 0.812 0.036 1.114 0.163 1.552 0.258 0.862 0.443 1.301 0.827 1.92l0.356 0.574-0.4 0.489c-3.154 3.924-3.501 9.444-0.871 13.793 0.982 1.632 2.586 3.235 4.151 4.169l0.466 0.273 12.743-0.108 0.302-0.165c1.057-0.596 2.548-1.926 3.383-3.004 1.208-1.569 2.064-3.472 2.413-5.546l0.010-0.074c0.118-0.74 0.118-2.933-0.007-3.63-0.377-2.148-1.182-3.988-2.452-5.62-0.244-0.309-0.436-0.568-0.436-0.589 0-0.014 0.133-0.237 0.288-0.489 0.362-0.575 0.687-1.316 0.864-1.962 0.199-0.719 0.199-2.516 0-3.235-0.709-2.551-2.836-4.679-5.843-5.851-0.843-0.331-2.284-0.683-3.214-0.797-0.864-0.1-2.999-0.080-3.804 0.043zM18.676 1.718c3.945 0.769 6.834 3.184 7.365 6.16 0.118 0.668 0.044 1.804-0.155 2.436-0.2 0.618-0.569 1.344-1.004 1.962-0.178 0.252-0.325 0.54-0.325 0.633s0.155 0.338 0.377 0.582c1.846 2.048 2.821 4.614 2.821 7.388-0.007 3.156-1.219 5.923-3.553 8.093-0.399 0.373-0.968 0.841-1.271 1.042l-0.554 0.373-12.211 0.051-0.473-0.302c-1.714-1.113-3.258-2.953-4.115-4.908-1.078-2.472-1.189-5.34-0.31-7.913 0.466-1.337 1.086-2.429 2.031-3.58 0.385-0.46 0.562-0.733 0.562-0.862 0-0.108-0.192-0.46-0.444-0.827-0.886-1.287-1.248-2.717-1.034-4.068 0.222-1.365 0.842-2.487 1.987-3.601 1.493-1.444 3.576-2.4 6.021-2.76 1.012-0.151 3.25-0.093 4.284 0.1z"></path>
<path d="M14.509 2.983c-3.028 0.496-5.4 2.178-6.175 4.385-0.178 0.496-0.207 0.69-0.207 1.402s0.029 0.905 0.207 1.401c0.11 0.316 0.317 0.756 0.458 0.978 0.384 0.618 0.554 0.64 1.316 0.18 1.094-0.674 2.368-1.19 3.727-1.474l0.078-0.014c0.916-0.187 2.674-0.258 3.671-0.143 1.558 0.18 3.25 0.74 4.602 1.538 0.384 0.222 0.776 0.409 0.871 0.409 0.562 0 1.278-1.617 1.278-2.874 0-2.796-2.674-5.19-6.463-5.787-0.805-0.129-2.587-0.129-3.362 0zM18.166 4.133c1.271 0.273 2.437 0.791 3.317 1.474 1.182 0.913 1.817 2.185 1.713 3.413-0.036 0.489-0.221 1.15-0.332 1.222-0.030 0.014-0.444-0.158-0.916-0.388-0.926-0.454-2.004-0.832-3.131-1.081l-0.097-0.018c-0.687-0.143-0.975-0.165-2.511-0.158-1.515 0-1.832 0.022-2.489 0.158-1.179 0.249-2.221 0.616-3.196 1.099l0.078-0.035c-1.1 0.524-1.042 0.532-1.241-0.116-0.258-0.84-0.096-1.955 0.406-2.796 0.267-0.445 0.997-1.186 1.529-1.552 1.012-0.698 1.899-1.013 3.804-1.359 0.391-0.071 2.564 0.029 3.066 0.137zM16.963 13.404c-0.207 0.26-0.207 0.504 0.007 0.712 0.14 0.137 0.281 0.172 0.791 0.209 1.034 0.075 1.983 0.38 2.815 0.865l-0.031-0.017c0.606 0.359 1.529 1.229 1.943 1.854 0.613 0.898 1.034 2.185 1.034 3.134 0 0.331 0.030 0.431 0.185 0.574 0.236 0.237 0.547 0.237 0.776 0 0.163-0.165 0.169-0.208 0.125-0.912-0.207-3.479-3.184-6.382-6.744-6.578l-0.74-0.043-0.162 0.202z"></path>
</symbol>
<symbol id="icon-ice-cream" viewBox="0 0 32 32">
<path d="M16.108 0.107c0.080 0.215 0.241 1.252 0.241 1.573 0 0.003 0 0.007 0 0.011 0 0.818-0.318 1.561-0.838 2.114l0.001-0.002c-0.449 0.482-0.898 0.749-1.975 1.185-1.198 0.489-1.694 0.783-2.256 1.339-0.569 0.569-0.904 1.191-1.024 1.922-0.134 0.796 0 1.358 0.408 1.68l0.207 0.16-0.328 0.208c-0.662 0.436-1.867 1.46-2.075 1.774-0.402 0.603-0.362 1.164 0.093 1.393l0.214 0.107-0.241 0.228c-0.362 0.341-0.436 0.576-0.382 1.191 0.034 0.409 0.020 0.63-0.073 0.964-0.114 0.436-0.114 0.442 0.033 0.75 0.148 0.301 0.563 0.683 0.938 0.844 0.18 0.080 0.187 0.107 0.228 0.723 0.020 0.356 0.053 1.486 0.080 2.517 0.020 1.031 0.068 1.975 0.107 2.089 0.034 0.12 0.161 0.281 0.276 0.361 0.388 0.268 0.656 0.556 0.829 0.891 0.195 0.382 0.409 1.319 1.058 4.559l0.455 2.276 0.282 0.268c0.535 0.529 1.56 0.77 3.247 0.77 1.693 0 2.704-0.235 3.24-0.764l0.288-0.274 0.414-2.109c0.916-4.612 0.997-4.867 1.714-5.436 0.22-0.181 0.436-0.402 0.475-0.502 0.047-0.114 0.094-0.991 0.127-2.316 0.027-1.178 0.068-2.343 0.094-2.591l0.040-0.448 0.436-0.329c0.548-0.421 0.763-0.803 0.763-1.392-0.006-0.696-0.462-1.46-1.292-2.142l-0.396-0.321 0.195-0.276c0.81-1.117 0.301-2.664-1.205-3.694l-0.455-0.315 0.167-0.174c0.743-0.796 0.864-3.173 0.241-4.827-0.374-0.984-1.232-2.055-2.283-2.845-0.514-0.388-1.934-1.245-2.060-1.245-0.027 0-0.027 0.047-0.006 0.107zM18.036 2.444c0.356 0.348 0.783 0.823 0.951 1.064 0.997 1.393 1.252 3.14 0.649 4.426-0.241 0.522-0.964 1.298-1.634 1.76-1.024 0.71-3.327 1.902-4.933 2.557-2.584 1.052-4.084 1.252-4.258 0.563-0.068-0.261 0.127-0.468 0.951-1.018 0.742-0.508 4.076-2.986 4.136-3.086 0.020-0.027-0.321 0.127-0.749 0.341-1.452 0.737-2.142 0.596-2.108-0.428 0.020-0.743 0.556-1.587 1.298-2.068 0.188-0.12 0.771-0.388 1.307-0.603 1.76-0.709 2.296-1.071 2.892-1.961 0.356-0.529 0.743-1.507 0.77-1.922 0.007-0.147 0.034-0.261 0.053-0.261s0.322 0.288 0.676 0.636zM19.863 10.050c0.489 0.274 0.997 0.743 1.218 1.111 0.389 0.662 0.188 1.325-0.649 2.169-0.91 0.924-2.463 1.808-4.171 2.37-1.573 0.516-3.079 0.756-5.236 0.83l-1.339 0.047 0.871 0.053c1.124 0.074 3.3 0.007 4.143-0.127 2.243-0.356 4.151-1.065 5.516-2.042 0.308-0.221 0.629-0.402 0.716-0.402 0.221 0 1.185 0.924 1.38 1.312 0.107 0.221 0.133 0.382 0.114 0.596-0.1 0.891-1.186 1.366-3.803 1.68-3.2 0.382-7.384 0.007-9.172-0.816-0.844-0.388-0.984-0.61-0.77-1.198 0.067-0.188 0.080-0.409 0.053-0.724-0.034-0.415-0.027-0.468 0.12-0.622 0.335-0.362 0.898-0.569 2.96-1.092 0.723-0.187 1.707-0.482 2.175-0.656 1.138-0.415 3.274-1.493 4.264-2.156 0.931-0.616 1.065-0.643 1.607-0.334zM10.972 18.244c1.406 0.409 2.652 0.529 4.968 0.482 1.74-0.033 2.812-0.14 4.357-0.415 0.316-0.053 0.589-0.1 0.623-0.1 0.074 0 0.053 2.571-0.027 3.247-0.087 0.716-0.282 1.272-0.489 1.406-0.214 0.14-1.285 0.288-2.718 0.368-2.939 0.16-5.958 0-6.895-0.375-0.508-0.207-0.563-0.476-0.569-2.959 0-1.653 0.013-1.881 0.1-1.847 0.053 0.020 0.348 0.107 0.649 0.194zM12.559 23.934c0.482 0.060 1.004 0.12 1.164 0.14l0.289 0.034-0.255 0.281c-0.328 0.355-0.83 1.064-1.011 1.426-0.207 0.415-0.275 0.442-0.582 0.275l-0.261-0.148-0.147-0.91c-0.078-0.506-0.143-0.863-0.216-1.217l0.028 0.165c-0.060-0.173-0.121-0.173 0.99-0.046zM19.696 23.86c0 0.013-0.034 0.187-0.068 0.382-0.040 0.2-0.207 1.292-0.374 2.429-0.341 2.377-0.569 3.494-0.777 3.869-0.288 0.502-0.978 0.796-2.095 0.891-0.436 0.034-1.748-0.053-1.821-0.121-0.053-0.060 1.098-1.486 1.279-1.58 0.167-0.094 0.213-0.080 0.782 0.213 0.663 0.349 0.998 0.403 0.998 0.181s-0.174-0.436-0.603-0.729c-0.395-0.282-0.535-0.443-0.535-0.63 0-0.053 0.194-0.355 0.428-0.669s0.575-0.817 0.749-1.118l0.329-0.542 0.3 0.041c0.609 0.087 0.77 0.080 0.75-0.053-0.013-0.068-0.127-0.261-0.255-0.422-0.127-0.167-0.228-0.335-0.228-0.368 0-0.127 0.622-1.299 0.824-1.547 0.174-0.214 0.315-0.322 0.315-0.228zM15.512 24.396c0.334 0.221 1.593 1.313 1.673 1.446 0.034 0.060-1.258 2.082-1.513 2.37-0.027 0.034-0.167-0.033-0.308-0.14-0.312-0.235-0.692-0.499-1.080-0.752l-0.085-0.052-0.904-0.596 0.542-0.917c0.964-1.613 0.944-1.587 1.151-1.587 0.107 0 0.341 0.1 0.523 0.228zM18.049 24.636c-0.235 0.288-0.428 0.469-0.508 0.469-0.174 0-0.456-0.154-0.931-0.502l-0.396-0.288 0.791-0.047c0.348-0.013 0.665-0.034 0.98-0.065l-0.064 0.005c0.536-0.087 0.536-0.080 0.128 0.428zM12.988 27.857c0.616 0.241 1.66 0.81 1.962 1.065 0.214 0.173 0.214 0.187 0.127 0.401-0.141 0.281-0.279 0.516-0.43 0.741l0.015-0.024c-0.128 0.191-0.277 0.434-0.417 0.682l-0.032 0.061c-0.213 0.415-0.281 0.449-0.723 0.329-0.476-0.141-0.729-0.382-0.863-0.818-0.181-0.609-0.469-2.329-0.436-2.597 0.013-0.1 0.294-0.040 0.796 0.161z"></path>
</symbol>
<symbol id="icon-cow" viewBox="0 0 32 32">
<path d="M6.169 0.192c-0.262 0.226-1.008 1.781-1.276 2.631-0.318 1.052-0.427 1.84-0.384 2.93 0.058 1.556 0.449 2.736 1.31 3.968 0.225 0.324 0.406 0.601 0.406 0.624 0 0.015-0.138 0.030-0.311 0.030-0.747 0-2.144 0.248-3.215 0.571-1.7 0.512-2.7 1.405-2.7 2.405 0 0.354 0.318 0.955 0.659 1.262 0.659 0.595 2.1 1.158 3.649 1.428 0.536 0.098 2.129 0.263 2.484 0.27 0.065 0 0.087 0.347 0.087 1.481 0 0.977 0.036 1.736 0.108 2.202 0.26 1.668 1.071 3.434 2.142 4.682l0.37 0.428-0.246 0.398c-0.362 0.564-0.5 0.992-0.542 1.63-0.109 1.533 0.846 2.893 2.693 3.848 3.517 1.826 8.984 1.112 11.033-1.443 0.999-1.248 1.115-2.676 0.325-3.968l-0.246-0.398 0.442-0.533c0.826-0.992 1.361-1.984 1.766-3.239 0.34-1.067 0.471-2.097 0.471-3.728 0-0.743 0.021-1.36 0.058-1.36 0.333-0.007 1.933-0.18 2.44-0.27 1.556-0.27 2.969-0.827 3.649-1.428 0.34-0.308 0.659-0.909 0.659-1.262 0-1.113-1.129-2.014-3.229-2.556-0.687-0.18-1.983-0.398-2.613-0.436l-0.297-0.023 0.326-0.451c0.405-0.548 0.912-1.616 1.108-2.315 0.55-2.021 0.21-4.373-0.97-6.62-0.493-0.932-0.834-1.15-1.231-0.783-0.152 0.144-0.218 0.339-0.362 1.045-0.449 2.247-1.282 4.028-2.498 5.342l-0.536 0.587h-11.453l-0.478-0.518c-1.187-1.308-2.049-3.156-2.498-5.411-0.145-0.707-0.21-0.901-0.362-1.044-0.239-0.218-0.471-0.211-0.738 0.022zM7.094 4.649c0.384 0.841 0.862 1.63 1.426 2.359l0.449 0.579-0.47 0.353c-0.442 0.338-0.854 0.82-1.173 1.369l-0.137 0.247-0.348-0.474c-1.188-1.637-1.484-3.644-0.854-5.726 0.304-1.006 0.297-0.999 0.572-0.127 0.131 0.42 0.377 1.060 0.536 1.42zM25.939 3.063c0.262 0.728 0.414 1.569 0.414 2.444 0 0.031-0 0.062-0.001 0.093l0-0.005c0 1.367-0.362 2.524-1.122 3.562l-0.34 0.466-0.253-0.428c-0.328-0.555-0.752-1.019-1.254-1.381l-0.013-0.009c-0.196-0.127-0.347-0.255-0.347-0.27 0-0.022 0.137-0.196 0.311-0.383 0.804-0.894 1.665-2.502 2.092-3.885 0.13-0.428 0.26-0.782 0.282-0.782s0.131 0.264 0.231 0.58zM22.24 8.556c0.804 0.338 1.571 1.307 1.694 2.126 0.065 0.451 0.217 0.737 0.412 0.782 0.087 0.014 0.688 0.067 1.332 0.112 2.287 0.151 4.090 0.639 4.858 1.308 0.355 0.316 0.318 0.579-0.108 0.902-0.854 0.646-2.7 1.134-4.583 1.218-1.245 0.052-1.506 0.089-1.673 0.262-0.123 0.128-0.137 0.263-0.137 1.623 0 1.842-0.094 2.901-0.326 3.757-0.325 1.164-0.97 2.405-1.723 3.284l-0.311 0.361-0.644-0.384c-0.687-0.426-1.485-0.76-2.335-0.958l-0.054-0.011c-2.744-0.654-5.778-0.256-7.819 1.029l-0.471 0.3-0.297-0.353c-0.405-0.474-1.043-1.488-1.296-2.059-0.557-1.293-0.724-2.345-0.724-4.66 0-2.247 0.116-2.082-1.549-2.172-2.129-0.113-3.751-0.496-4.772-1.142-0.753-0.481-0.629-0.909 0.42-1.413 1.006-0.489 2.388-0.781 4.308-0.901 1.492-0.098 1.527-0.121 1.665-0.842 0.203-1.090 1.006-1.991 2.020-2.277 0.253-0.075 1.672-0.090 6.016-0.083l5.684 0.015 0.412 0.173zM18.171 24.112c1.774 0.436 3.099 1.247 3.671 2.254 0.138 0.233 0.196 0.474 0.224 0.842 0.029 0.458 0.008 0.571-0.166 0.947-0.804 1.707-3.757 2.833-6.762 2.578-3.612-0.3-5.988-2.315-5.053-4.291 0.507-1.068 2.222-2.089 4.032-2.39 0.297-0.044 0.594-0.098 0.652-0.113s0.71-0.015 1.449 0c1.005 0.023 1.491 0.068 1.954 0.173z"></path>
<path d="M10.99 12.321c-0.449 0.151-0.753 0.347-1.158 0.752-0.356 0.338-0.384 0.736-0.087 0.977 0.276 0.225 0.536 0.196 0.868-0.098 0.42-0.368 0.747-0.518 1.152-0.518 0.405-0.008 0.716 0.135 1.15 0.518 0.333 0.293 0.594 0.323 0.869 0.098 0.145-0.12 0.188-0.218 0.188-0.444 0-0.232-0.051-0.338-0.305-0.593-0.716-0.721-1.78-0.999-2.678-0.692zM19.431 12.313c-0.462 0.173-1.057 0.564-1.295 0.857-0.232 0.286-0.24 0.609 0 0.85 0.238 0.255 0.528 0.24 0.876-0.045 0.854-0.707 1.492-0.729 2.281-0.076 0.203 0.173 0.434 0.308 0.507 0.308 0.355 0 0.644-0.316 0.644-0.692 0-0.24-0.601-0.796-1.144-1.060-0.601-0.293-1.317-0.346-1.868-0.142zM12.040 26.224c-0.21 0.203-0.283 0.496-0.174 0.729 0.080 0.188 0.203 0.263 0.702 0.398 0.225 0.060 0.319 0.135 0.398 0.323 0.101 0.249 0.109 0.249 0.667 0.271l0.557 0.022v-0.211c-0.007-0.3-0.174-0.736-0.391-1.036-0.253-0.347-0.695-0.572-1.195-0.617-0.34-0.030-0.427-0.015-0.564 0.121zM18.954 26.171c-0.362 0.098-0.883 0.587-1.028 0.969-0.072 0.201-0.121 0.434-0.137 0.677l-0 0.008c-0.014 0.323 0.014 0.398 0.188 0.556 0.427 0.376 0.992 0.083 0.992-0.518 0-0.293 0.217-0.496 0.601-0.572 0.405-0.075 0.55-0.24 0.557-0.623 0-0.504-0.449-0.699-1.173-0.496z"></path>
</symbol>
<symbol id="icon-main-logo" viewBox="0 0 30 32">
<path d="M15.226 17.082c1.415-3.784-1.515-5.855-3.457-7.217-0.371-0.278-0.742-0.538-1.044-0.776-0.525-0.438-0.921-1.015-1.133-1.674l-0.007-0.026c-0.104-0.319-0.163-0.686-0.163-1.067 0-0.345 0.049-0.679 0.141-0.995l-0.006 0.025c0.009-0.031 0.014-0.067 0.014-0.105 0-0.115-0.050-0.219-0.129-0.29l-0-0c-0.071-0.065-0.167-0.105-0.272-0.105-0.049 0-0.096 0.009-0.14 0.025l0.003-0.001c-0.69 0.273-1.285 0.63-1.811 1.067l0.011-0.009c-0.512 0.391-0.925 0.885-1.215 1.452l-0.011 0.024c-0.277 0.541-0.44 1.18-0.442 1.857v0.001c-0.367 0.287-0.684 0.613-0.952 0.978l-0.010 0.014c-0.445 0.593-0.713 1.341-0.713 2.151 0 0.061 0.002 0.121 0.004 0.181l-0-0.008c-0.58 0.526-1.023 1.192-1.276 1.945l-0.009 0.032c-0.143 0.422-0.226 0.908-0.226 1.414 0 0.33 0.035 0.652 0.102 0.962l-0.005-0.030c-0.236 0.141-0.42 0.354-0.521 0.608-0.056 0.135-0.088 0.292-0.088 0.457 0 0.12 0.017 0.237 0.050 0.347l-0.002-0.009c0.075 0.262 0.235 0.493 0.456 0.657s0.49 0.252 0.767 0.25h0.026v2.151c0 0.219 0.089 0.428 0.245 0.583s0.369 0.241 0.591 0.241h0.65l1.058 9.040c0.022 0.201 0.118 0.387 0.271 0.522s0.351 0.21 0.556 0.21h4.404c0.206-0 0.404-0.075 0.557-0.21s0.251-0.32 0.275-0.522l1.058-9.040h0.65c0.222 0 0.434-0.087 0.591-0.241 0.151-0.148 0.244-0.354 0.245-0.582v-2.152h0.026c0.001 0 0.001 0 0.002 0 0.348 0 0.663-0.139 0.894-0.365l-0 0c0.237-0.234 0.371-0.551 0.371-0.883 0-0.004 0-0.009 0-0.014 0-0.343-0.142-0.654-0.371-0.875l-0-0-0.011 0.003zM5.695 10.216c0.535 1.98 2.599 2.759 4.482 3.455 0.060 0.037 0.134 0.059 0.212 0.059 0.109 0 0.207-0.042 0.281-0.111l-0 0c0.076-0.073 0.124-0.175 0.124-0.289 0-0.010-0-0.019-0.001-0.028l0 0.001c-0.009-0.123-0.072-0.229-0.166-0.295l-0.001-0.001c-0.046-0.033-0.101-0.057-0.16-0.068l-0.003-0c-2.027-0.758-3.939-1.464-4.084-3.488-0.004-0.061-0.006-0.131-0.006-0.203 0-0.514 0.116-1.001 0.324-1.436l-0.009 0.020c0.246-0.518 0.601-0.949 1.038-1.277l0.009-0.006c0.283-0.231 0.586-0.438 0.906-0.615-0.010 0.114-0.015 0.247-0.015 0.381s0.006 0.267 0.017 0.398l-0.001-0.017c0.047 0.615 0.216 1.181 0.484 1.686l-0.011-0.023c0.281 0.531 0.648 0.98 1.087 1.343l0.007 0.006c0.308 0.26 0.691 0.527 1.114 0.812 0.977 0.692 2.087 1.465 2.792 2.511 0.441 0.619 0.704 1.39 0.704 2.223 0 0.538-0.11 1.051-0.309 1.517l0.010-0.025h-1.641c-3.382 0-7.27-0.922-8.038-3.506-0.072-0.242-0.113-0.519-0.113-0.807 0-0.292 0.043-0.573 0.122-0.839l-0.005 0.021c0.164-0.551 0.468-1.018 0.87-1.377l0.003-0.003-0.019-0.018zM8.74 22.693l1.24 1.222-1.241 1.222-1.24-1.23 1.24-1.215zM11.584 25.903l-1.025 1.010-1.24-1.222 1.241-1.219 1.076 1.057-0.052 0.374zM8.74 28.706l-1.241-1.222 1.241-1.222 1.24 1.222-1.241 1.222zM8.172 25.698l-1.241 1.222-1.032-1.018-0.044-0.366 1.077-1.057 1.24 1.219zM6.36 27.484l-0.249 0.245-0.063-0.556 0.312 0.311zM6.23 28.735l0.702-0.692 1.363 1.354c0.007 0.028 0.016 0.054 0.026 0.081h-2.005l-0.086-0.743zM10.552 28.044l0.702 0.692-0.086 0.732h-2.060l1.444-1.424zM11.368 27.729l-0.249-0.245 0.316-0.311-0.067 0.556zM11.74 24.53l-0.62-0.622 0.787-0.776-0.167 1.398zM10.548 23.352l-1.177-1.156h2.354l-1.177 1.157zM6.928 23.352l-1.177-1.156h2.354l-1.177 1.157zM10.938 31.169h-4.4c-0.013-0.002-0.024-0.012-0.026-0.025l-0-0-0.104-0.879h4.664l-0.1 0.879c-0.002 0.015-0.014 0.026-0.029 0.026-0 0-0 0-0 0v0h-0.003zM14.343 18.418h-1.292c-0.011-0.001-0.025-0.002-0.038-0.002-0.105 0-0.201 0.039-0.273 0.104l0-0c-0.081 0.073-0.132 0.178-0.133 0.295v0c0 0 0 0 0 0 0 0.117 0.051 0.223 0.133 0.295l0 0c0.071 0.064 0.166 0.103 0.271 0.103 0.014 0 0.028-0.001 0.042-0.002l-0.002 0h0.46v2.152c-0.001 0.008-0.005 0.014-0.010 0.019l-0 0c-0.005 0.004-0.012 0.007-0.019 0.007-0 0-0.001 0-0.001 0h-9.494c-0 0-0 0-0.001 0-0.007 0-0.014-0.003-0.019-0.007l0 0c-0.005-0.005-0.009-0.011-0.010-0.019v-2.152h7.355c0.104-0.010 0.195-0.058 0.261-0.129l0-0c0.065-0.070 0.105-0.165 0.105-0.268s-0.040-0.198-0.105-0.269l0 0c-0.066-0.071-0.157-0.119-0.259-0.128l-0.002-0h-8.168c-0.012 0.001-0.026 0.002-0.041 0.002-0.12 0-0.229-0.045-0.312-0.119l0 0c-0.092-0.083-0.149-0.202-0.15-0.335v-0c0-0 0-0 0-0.001 0-0.133 0.058-0.252 0.149-0.334l0-0c0.082-0.074 0.191-0.119 0.31-0.119 0.015 0 0.029 0.001 0.044 0.002l-0.002-0h0.843c0.104-0.010 0.195-0.058 0.261-0.129l0-0c0.065-0.070 0.105-0.165 0.105-0.268s-0.040-0.198-0.105-0.269l0 0c-0.066-0.071-0.157-0.119-0.259-0.129l-0.002-0h-0.742c-0.044-0.218-0.069-0.469-0.069-0.726 0-0.339 0.044-0.667 0.125-0.981l-0.006 0.027c0.15-0.579 0.412-1.083 0.764-1.511l-0.005 0.007c0.26 0.798 0.928 1.889 2.599 2.756 1.57 0.808 3.65 1.222 6.178 1.222h1.485c0.012-0.001 0.027-0.002 0.041-0.002 0.12 0 0.229 0.045 0.311 0.119l-0-0c0.092 0.083 0.149 0.202 0.15 0.335v0c0 0 0 0.001 0 0.001 0 0.133-0.058 0.252-0.149 0.334l-0 0c-0.082 0.074-0.191 0.119-0.31 0.119-0.015 0-0.029-0.001-0.044-0.002l0.002 0h0.026z"></path>
<path d="M16.964 29.152l-0.293 0.448 0.006 0.004 0.287-0.453zM20.113 29.304l0.535-0.012-0.014-0.62-0.611 0.104 0.090 0.528zM20.15 30.951l0.136 0.518 0.409-0.108-0.010-0.422-0.535 0.012zM16.017 31.030l0.121-0.522-0.003-0.001-0.117 0.523zM13.978 30.119l0.347-0.409h-0.001l-0.346 0.409zM13.24 28.446l0.536 0.003v-0.003h-0.536zM13.496 27.274l-0.48-0.236v0.001l0.48 0.235zM15.138 25.872l0.19 0.501 0.002-0.001-0.192-0.5zM20.401 25.736l0.534 0.041 0.035-0.452-0.44-0.109-0.129 0.52zM20.27 27.415l-0.099 0.526 0.587 0.111 0.046-0.596-0.534-0.042zM18.842 26.728c-0.804 0-1.48 0.086-1.973 0.303-0.253 0.111-0.483 0.268-0.651 0.489-0.159 0.209-0.255 0.473-0.255 0.76 0 0.005 0 0.010 0 0.015v-0.001h1.071c-0-0.004-0-0.008-0-0.013 0-0.043 0.014-0.083 0.038-0.115l-0 0c0.028-0.037 0.091-0.095 0.228-0.156 0.288-0.127 0.783-0.212 1.542-0.212v-1.072zM15.963 28.294c0 0.551 0.247 1.006 0.709 1.307l0.585-0.897c-0.16-0.103-0.223-0.221-0.223-0.409h-1.071zM16.677 29.604c0.438 0.277 1.015 0.381 1.663 0.381v-1.071c-0.559 0-0.899-0.095-1.089-0.215l-0.574 0.905zM18.34 29.985c0.635 0 1.256-0.051 1.863-0.154l-0.179-1.056c-0.5 0.088-1.077 0.139-1.665 0.139-0.007 0-0.013 0-0.020-0h0.001v1.071zM19.578 29.315l0.036 1.648 1.071-0.024-0.037-1.647-1.071 0.024zM20.013 30.433c-0.612 0.161-1.288 0.244-2.029 0.244v1.071c0.821 0 1.589-0.092 2.302-0.279l-0.273-1.036zM17.984 30.677c-0.757 0-1.369-0.060-1.846-0.169l-0.241 1.044c0.582 0.134 1.281 0.197 2.087 0.197v-1.071zM16.134 30.507c-0.511-0.114-0.881-0.236-1.127-0.356l-0.47 0.962c0.353 0.172 0.814 0.316 1.363 0.439l0.234-1.046zM15.008 30.151c-0.26-0.126-0.485-0.273-0.688-0.444l0.005 0.004-0.693 0.817c0.263 0.222 0.561 0.417 0.881 0.574l0.026 0.011 0.47-0.962zM14.323 29.71c-0.364-0.308-0.55-0.709-0.547-1.262l-1.071-0.005c-0.004 0.842 0.301 1.556 0.927 2.085l0.692-0.818zM13.776 28.446c0-0.36 0.070-0.669 0.202-0.936l-0.962-0.471c-0.211 0.43-0.311 0.902-0.311 1.407h1.071zM13.977 27.51c0.243-0.495 0.673-0.88 1.351-1.137l-0.38-1.002c-0.884 0.336-1.549 0.886-1.933 1.666l0.961 0.473zM15.331 26.372c0.712-0.273 1.507-0.414 2.392-0.414v-1.071c-0.999 0-1.926 0.159-2.776 0.485l0.384 1zM17.723 25.958c0.901 0 1.751 0.1 2.549 0.298l0.258-1.040c-0.89-0.221-1.826-0.33-2.807-0.33v1.071zM19.867 25.695l-0.13 1.679 1.068 0.084 0.131-1.679-1.068-0.083zM20.37 26.889c-0.557-0.105-1.068-0.161-1.528-0.161v1.071c0.377 0 0.818 0.046 1.328 0.142l0.199-1.053zM25.596 27.744l-0.003 0.536 0.544 0.003-0.005-0.544-0.536 0.005zM25.366 27.049l-0.364 0.393 0.005 0.004 0.359-0.397zM24.032 27.102l0.371 0.386 0.004-0.004-0.375-0.383zM23.708 27.734l-0.529-0.087-0.101 0.619 0.627 0.003 0.003-0.536zM27.646 30.59l0.324 0.427 0.192-0.146 0.018-0.241-0.534-0.039zM26.49 31.019l-0.115-0.523-0.003 0 0.118 0.523zM22.473 30.873l-0.182 0.504 0.004 0.001 0.178-0.505zM21.558 30.386l-0.332 0.42 0.003 0.002 0.003 0.002 0.326-0.425zM20.946 29.617l-0.48 0.237 0.001 0.002 0.479-0.24zM21.573 26.369v0zM26.469 25.788l0.214-0.49-0.005-0.002-0.209 0.493zM27.699 26.918l-0.482 0.234 0.001 0.003 0.48-0.237zM27.908 27.855l0.534 0.038 0.001-0.019v-0.020h-0.536zM27.845 28.718l-0.002 0.536 0.501 0.002 0.036-0.499-0.534-0.039zM23.603 28.697l0.003-0.536-0.699-0.003 0.178 0.676 0.518-0.137zM24.21 29.445l-0.263 0.466 0.002 0.001 0.261-0.468zM27.463 29.262v-0.536h-0.107l-0.098 0.041 0.206 0.495zM27.745 29.262l0.534 0.039 0.043-0.575h-0.577v0.536zM26.132 27.739c-0.004-0.387-0.094-0.803-0.406-1.087l-0.72 0.794c-0.006-0.005 0.006 0.001 0.021 0.047 0.016 0.049 0.032 0.131 0.033 0.257l1.071-0.011zM25.73 26.657c-0.281-0.261-0.65-0.347-1.013-0.347v1.071c0.208 0 0.272 0.050 0.284 0.061l0.729-0.785zM24.717 26.309c-0.399 0-0.77 0.125-1.060 0.409l0.75 0.766c0.059-0.058 0.144-0.103 0.31-0.103v-1.072zM23.661 26.715c-0.251 0.242-0.425 0.563-0.481 0.923l-0.001 0.009 1.057 0.174c0.025-0.149 0.081-0.252 0.166-0.334l-0.742-0.773zM23.705 28.27l1.889 0.010 0.006-1.071-1.889-0.011-0.006 1.071zM27.323 30.163c-0.118 0.089-0.404 0.213-0.948 0.333l0.23 1.046c0.565-0.125 1.050-0.287 1.365-0.525l-0.647-0.854zM26.372 30.497c-0.449 0.109-0.965 0.173-1.496 0.175h-0.002v1.071c0.566 0 1.145-0.068 1.735-0.202l-0.236-1.045zM24.874 30.672c-0.505 0-0.921-0.024-1.252-0.068l-0.143 1.062c0.394 0.053 0.861 0.078 1.395 0.078v-1.071zM23.622 30.603c-0.364-0.050-0.692-0.133-1.004-0.247l0.034 0.011-0.357 1.010c0.389 0.138 0.784 0.233 1.184 0.288l0.143-1.062zM22.656 30.369c-0.314-0.113-0.568-0.251-0.772-0.408l-0.652 0.85c0.305 0.234 0.661 0.42 1.058 0.565l0.365-1.007zM21.89 29.966c-0.194-0.158-0.351-0.354-0.461-0.578l-0.004-0.010-0.958 0.479c0.186 0.377 0.442 0.694 0.753 0.945l0.005 0.004 0.666-0.84zM21.426 29.38c-0.113-0.228-0.18-0.521-0.18-0.897h-1.071c0 0.502 0.090 0.965 0.29 1.372l0.96-0.475zM21.246 28.482c0-0.377 0.068-0.71 0.196-1.006l-0.983-0.426c-0.192 0.443-0.285 0.923-0.285 1.432h1.071zM21.442 27.477c0.135-0.311 0.3-0.542 0.487-0.707l-0.713-0.8c-0.322 0.287-0.572 0.653-0.757 1.082l0.983 0.426zM21.93 26.769c0.576-0.513 1.454-0.811 2.719-0.811v-1.071c-1.419 0-2.591 0.333-3.432 1.083l0.713 0.799zM24.649 25.958c0.568 0 1.104 0.108 1.611 0.323l0.418-0.986c-0.593-0.258-1.284-0.409-2.010-0.409-0.007 0-0.014 0-0.021 0h0.001v1.071zM26.255 26.279c0.474 0.207 0.78 0.5 0.961 0.873l0.963-0.468c-0.307-0.632-0.82-1.092-1.497-1.387l-0.428 0.982zM27.218 27.156c0.1 0.202 0.154 0.432 0.154 0.699h1.071c0-0.417-0.086-0.811-0.265-1.174l-0.96 0.474zM27.374 27.815l-0.063 0.863 1.068 0.078 0.063-0.863-1.068-0.077zM27.848 28.182l-4.242-0.021-0.005 1.071 4.242 0.021 0.005-1.071zM23.085 28.833c0.126 0.475 0.432 0.834 0.862 1.078l0.527-0.933c-0.212-0.12-0.31-0.258-0.352-0.418l-1.036 0.274zM23.948 29.912c0.434 0.243 0.978 0.34 1.585 0.34v-1.071c-0.509 0-0.848-0.084-1.062-0.204l-0.523 0.935zM25.533 30.252c0.651 0 1.367-0.176 2.136-0.496l-0.412-0.989c-0.688 0.287-1.26 0.414-1.724 0.414v1.071zM27.463 29.797h0.283v-1.071h-0.282v1.071zM27.212 29.221l-0.1 1.329 1.068 0.080 0.099-1.329-1.068-0.080z"></path>
</symbol>
<symbol id="icon-git-hub" viewBox="0 0 32 32">
<path d="M16 0c-8.789 0-16 7.211-16 16 0 7.499 5.262 14.312 12.25 16v-5.293c-0.276 0.070-0.593 0.109-0.919 0.109-0.398 0-0.781-0.059-1.143-0.169l0.028 0.007c-0.946-0.278-1.714-0.909-2.285-1.869-0.363-0.613-1.008-1.28-1.68-1.23l-0.165-1.867c1.454-0.125 2.71 0.886 3.456 2.139 0.333 0.558 0.715 0.885 1.205 1.029 0.472 0.141 0.981 0.074 1.573-0.136 0.149-1.186 0.693-1.629 1.104-2.256-4.168-0.621-5.829-2.832-6.488-4.576-0.874-2.318-0.405-5.213 1.139-7.043 0.030-0.035 0.085-0.128 0.064-0.192-0.709-2.141 0.154-3.91 0.186-4.098 0.818 0.24 0.95-0.243 3.552 1.336l0.448 0.27c0.189 0.112 0.128 0.048 0.317 0.032 1.003-0.282 2.157-0.452 3.349-0.469l0.010-0c1.136 0.014 2.272 0.176 3.403 0.483l0.146 0.016c-0.013-0.003 0.040-0.010 0.128-0.062 3.248-1.968 3.131-1.325 4.003-1.608 0.032 0.189 0.882 1.987 0.182 4.099-0.096 0.291 2.816 2.957 1.202 7.235-0.659 1.744-2.32 3.957-6.486 4.578 0.534 0.816 1.176 1.248 1.173 2.928v6.606c6.986-1.688 12.25-8.501 12.25-16 0-8.789-7.211-16-16-16z"></path>
</symbol>
<symbol id="icon-facebook" viewBox="0 0 16 32">
<path d="M14.143 15.971h-4.033v14.865h-6.112v-14.865h-2.906v-5.222h2.906v-3.382c0-2.417 1.142-6.204 6.167-6.204l4.527 0.019v5.072h-3.284c-0.538 0-1.297 0.272-1.297 1.425v3.073h4.567l-0.534 5.219z"></path>
</symbol>
<symbol id="icon-telegram" viewBox="0 0 44 32">
<path d="M17.342 21.048l-0.674 8.86c0.966 0 1.384-0.388 1.886-0.852l4.526-4.040 9.38 6.414c1.72 0.894 2.934 0.422 3.398-1.478l6.158-26.932c0.546-2.374-0.92-3.302-2.594-2.72l-36.196 12.934c-2.47 0.896-2.432 2.18-0.418 2.766l9.252 2.684 21.494-12.552c1.012-0.626 1.932-0.28 1.174 0.346l-17.386 14.57z"></path>
</symbol>
<symbol id="icon-burger" viewBox="0 0 32 32">
<path stroke="#fff" style="stroke: var(--color1, #fff)" stroke-linejoin="miter" stroke-linecap="round" stroke-miterlimit="4" stroke-width="2" d="M6 10h20"></path>
<path stroke="#fff" style="stroke: var(--color1, #fff)" stroke-linejoin="miter" stroke-linecap="round" stroke-miterlimit="4" stroke-width="2" d="M6 16h20"></path>
<path stroke="#fff" style="stroke: var(--color1, #fff)" stroke-linejoin="miter" stroke-linecap="round" stroke-miterlimit="4" stroke-width="2" d="M6 22h20"></path>
</symbol>
<symbol id="icon-cross" viewBox="0 0 32 32">
<path d="M23.884 6.706l-7.884 7.884-7.884-7.884c-0.19-0.174-0.439-0.267-0.696-0.261s-0.502 0.11-0.684 0.292c-0.182 0.182-0.286 0.427-0.292 0.684s0.088 0.506 0.261 0.696l7.88 7.884-7.882 7.882c-0.096 0.092-0.173 0.202-0.226 0.324s-0.081 0.253-0.083 0.386 0.023 0.265 0.073 0.388c0.050 0.123 0.124 0.235 0.218 0.329s0.206 0.169 0.329 0.219 0.255 0.075 0.388 0.074c0.133-0.002 0.264-0.029 0.386-0.082s0.232-0.13 0.324-0.226l7.886-7.882 7.884 7.884c0.19 0.174 0.439 0.267 0.696 0.262s0.502-0.11 0.684-0.292c0.182-0.182 0.286-0.427 0.292-0.684s-0.088-0.506-0.262-0.696l-7.884-7.884 7.884-7.886c0.096-0.092 0.173-0.202 0.226-0.324s0.081-0.253 0.083-0.386c0.002-0.133-0.023-0.265-0.073-0.388s-0.124-0.235-0.218-0.329c-0.094-0.094-0.206-0.169-0.329-0.219s-0.255-0.075-0.388-0.074-0.264 0.029-0.386 0.082c-0.122 0.053-0.232 0.13-0.324 0.226v0.002z"></path>
</symbol>
<symbol id="icon-instagram" viewBox="0 0 32 32">
<path d="M16 2.881c4.275 0 4.781 0.019 6.462 0.094 1.563 0.069 2.406 0.331 2.969 0.55 0.744 0.288 1.281 0.638 1.837 1.194 0.563 0.563 0.906 1.094 1.2 1.838 0.219 0.563 0.481 1.412 0.55 2.969 0.075 1.688 0.094 2.194 0.094 6.463s-0.019 4.781-0.094 6.463c-0.069 1.563-0.331 2.406-0.55 2.969-0.288 0.744-0.637 1.281-1.194 1.837-0.563 0.563-1.094 0.906-1.837 1.2-0.563 0.219-1.413 0.481-2.969 0.55-1.688 0.075-2.194 0.094-6.463 0.094s-4.781-0.019-6.463-0.094c-1.563-0.069-2.406-0.331-2.969-0.55-0.744-0.288-1.281-0.637-1.838-1.194-0.563-0.563-0.906-1.094-1.2-1.837-0.219-0.563-0.481-1.413-0.55-2.969-0.075-1.688-0.094-2.194-0.094-6.463s0.019-4.781 0.094-6.463c0.069-1.563 0.331-2.406 0.55-2.969 0.288-0.744 0.638-1.281 1.194-1.838 0.563-0.563 1.094-0.906 1.838-1.2 0.563-0.219 1.412-0.481 2.969-0.55 1.681-0.075 2.188-0.094 6.463-0.094zM16 0c-4.344 0-4.887 0.019-6.594 0.094-1.7 0.075-2.869 0.35-3.881 0.744-1.056 0.412-1.95 0.956-2.837 1.85-0.894 0.888-1.438 1.781-1.85 2.831-0.394 1.019-0.669 2.181-0.744 3.881-0.075 1.713-0.094 2.256-0.094 6.6s0.019 4.887 0.094 6.594c0.075 1.7 0.35 2.869 0.744 3.881 0.413 1.056 0.956 1.95 1.85 2.837 0.887 0.887 1.781 1.438 2.831 1.844 1.019 0.394 2.181 0.669 3.881 0.744 1.706 0.075 2.25 0.094 6.594 0.094s4.888-0.019 6.594-0.094c1.7-0.075 2.869-0.35 3.881-0.744 1.050-0.406 1.944-0.956 2.831-1.844s1.438-1.781 1.844-2.831c0.394-1.019 0.669-2.181 0.744-3.881 0.075-1.706 0.094-2.25 0.094-6.594s-0.019-4.887-0.094-6.594c-0.075-1.7-0.35-2.869-0.744-3.881-0.394-1.063-0.938-1.956-1.831-2.844-0.887-0.887-1.781-1.438-2.831-1.844-1.019-0.394-2.181-0.669-3.881-0.744-1.712-0.081-2.256-0.1-6.6-0.1v0z"></path>
<path d="M16 7.781c-4.537 0-8.219 3.681-8.219 8.219s3.681 8.219 8.219 8.219 8.219-3.681 8.219-8.219c0-4.537-3.681-8.219-8.219-8.219zM16 21.331c-2.944 0-5.331-2.387-5.331-5.331s2.387-5.331 5.331-5.331c2.944 0 5.331 2.387 5.331 5.331s-2.387 5.331-5.331 5.331z"></path>
<path d="M26.462 7.456c0 1.060-0.859 1.919-1.919 1.919s-1.919-0.859-1.919-1.919c0-1.060 0.859-1.919 1.919-1.919s1.919 0.859 1.919 1.919z"></path>
</symbol>

<symbol id="icon-arrow-btn" viewBox="0 0 32 32">
<path d="M4 2l4.95 4L4 10" stroke="#131313" stroke-width="2" stroke-linecap="round" stroke-linejoin="round"/></path>
<symbol id="icon-arrow-2" viewBox="0 0 84 32">
<path d="M82.643 17.191c0.781-0.781 0.781-2.047 0-2.828l-12.728-12.728c-0.781-0.781-2.047-0.781-2.828 0s-0.781 2.047 0 2.828l11.314 11.314-11.314 11.314c-0.781 0.781-0.781 2.047 0 2.829s2.047 0.781 2.828 0l12.728-12.728zM0.76 17.777h80.469v-4h-80.469v4z"></path>
</symbol>


<symbol id="icon-arrow-btn-1" viewBox="0 0 32 32">
<path stroke-linejoin="round" stroke-linecap="round" stroke-miterlimit="4" stroke-width="5.3333" d="M10.667 5.333l13.2 10.667-13.2 10.667"></path>
</symbol>

<symbol id="icon-dots-sm-1" viewBox="0 0 205 32">
<path d="M155.332 29.617c0 0.982-0.764 1.779-1.706 1.779s-1.706-0.796-1.706-1.779c0-0.982 0.764-1.779 1.706-1.779s1.706 0.796 1.706 1.779z"></path>
<path d="M159.029 27.245c0 0.982-0.764 1.779-1.706 1.779s-1.706-0.796-1.706-1.779c0-0.982 0.764-1.779 1.706-1.779s1.706 0.796 1.706 1.779z"></path>
<path d="M163.292 24.578c0 0.982-0.764 1.779-1.706 1.779s-1.706-0.796-1.706-1.779c0-0.982 0.764-1.779 1.706-1.779s1.706 0.796 1.706 1.779z"></path>
<path d="M167.273 22.207c0 0.982-0.764 1.779-1.706 1.779s-1.706-0.796-1.706-1.779c0-0.982 0.764-1.779 1.706-1.779s1.706 0.796 1.706 1.779z"></path>
<path d="M164.998 28.431c0 0.982-0.764 1.779-1.706 1.779s-1.706-0.796-1.706-1.779c0-0.982 0.764-1.779 1.706-1.779s1.706 0.796 1.706 1.779z"></path>
<path d="M168.694 26.060c0 0.982-0.764 1.779-1.706 1.779s-1.706-0.796-1.706-1.779c0-0.982 0.764-1.779 1.706-1.779s1.706 0.796 1.706 1.779z"></path>
<path d="M172.957 23.392c0 0.982-0.764 1.779-1.706 1.779s-1.706-0.796-1.706-1.779c0-0.982 0.764-1.779 1.706-1.779s1.706 0.796 1.706 1.779z"></path>
<path d="M176.939 21.021c0 0.982-0.764 1.779-1.706 1.779s-1.706-0.796-1.706-1.779c0-0.982 0.764-1.779 1.706-1.779s1.706 0.796 1.706 1.779z"></path>
<path d="M173.243 27.542c0 0.982-0.764 1.779-1.706 1.779s-1.706-0.796-1.706-1.779c0-0.982 0.764-1.779 1.706-1.779s1.706 0.796 1.706 1.779z"></path>
<path d="M176.94 25.171c0 0.982-0.764 1.779-1.706 1.779s-1.706-0.796-1.706-1.779c0-0.982 0.764-1.779 1.706-1.779s1.706 0.796 1.706 1.779z"></path>
<path d="M181.204 22.503c0 0.982-0.764 1.779-1.706 1.779s-1.706-0.796-1.706-1.779c0-0.982 0.764-1.779 1.706-1.779s1.706 0.796 1.706 1.779z"></path>
<path d="M185.183 20.132c0 0.982-0.764 1.779-1.706 1.779s-1.706-0.796-1.706-1.779c0-0.982 0.764-1.779 1.706-1.779s1.706 0.796 1.706 1.779z"></path>
<path d="M181.203 26.356c0 0.982-0.764 1.779-1.706 1.779s-1.706-0.796-1.706-1.779c0-0.982 0.764-1.779 1.706-1.779s1.706 0.796 1.706 1.779z"></path>
<path d="M184.897 23.985c0 0.982-0.764 1.779-1.706 1.779s-1.706-0.796-1.706-1.779c0-0.982 0.764-1.779 1.706-1.779s1.706 0.796 1.706 1.779z"></path>
<path d="M189.162 21.318c0 0.982-0.764 1.779-1.706 1.779s-1.706-0.796-1.706-1.779c0-0.982 0.764-1.779 1.706-1.779s1.706 0.796 1.706 1.779z"></path>
<path d="M193.142 18.947c0 0.982-0.764 1.779-1.706 1.779s-1.706-0.796-1.706-1.779c0-0.982 0.764-1.779 1.706-1.779s1.706 0.796 1.706 1.779z"></path>
<path d="M183.762 29.617c0 0.982-0.764 1.779-1.706 1.779s-1.706-0.796-1.706-1.779c0-0.982 0.764-1.779 1.706-1.779s1.706 0.796 1.706 1.779z"></path>
<path d="M187.458 27.245c0 0.982-0.764 1.779-1.706 1.779s-1.706-0.796-1.706-1.779c0-0.982 0.764-1.779 1.706-1.779s1.706 0.796 1.706 1.779z"></path>
<path d="M192.575 29.913c0 0.982-0.764 1.779-1.706 1.779s-1.706-0.796-1.706-1.779c0-0.982 0.764-1.779 1.706-1.779s1.706 0.796 1.706 1.779z"></path>
<path d="M191.723 24.578c0 0.982-0.764 1.779-1.706 1.779s-1.706-0.796-1.706-1.779c0-0.982 0.764-1.779 1.706-1.779s1.706 0.796 1.706 1.779z"></path>
<path d="M196.84 27.245c0 0.982-0.764 1.779-1.706 1.779s-1.706-0.796-1.706-1.779c0-0.982 0.764-1.779 1.706-1.779s1.706 0.796 1.706 1.779z"></path>
<path d="M200.82 29.913c0 0.982-0.764 1.779-1.706 1.779s-1.706-0.796-1.706-1.779c0-0.982 0.764-1.779 1.706-1.779s1.706 0.796 1.706 1.779z"></path>
<path d="M195.702 22.207c0 0.982-0.764 1.779-1.706 1.779s-1.706-0.796-1.706-1.779c0-0.982 0.764-1.779 1.706-1.779s1.706 0.796 1.706 1.779z"></path>
<path d="M200.82 24.874c0 0.982-0.764 1.779-1.706 1.779s-1.706-0.796-1.706-1.779c0-0.982 0.764-1.779 1.706-1.779s1.706 0.796 1.706 1.779z"></path>
<path d="M204.8 27.542c0 0.982-0.764 1.779-1.706 1.779s-1.706-0.796-1.706-1.779c0-0.982 0.764-1.779 1.706-1.779s1.706 0.796 1.706 1.779z"></path>
<path d="M137.992 10.055c0 0.982-0.764 1.779-1.706 1.779s-1.706-0.796-1.706-1.779c0-0.982 0.764-1.779 1.706-1.779s1.706 0.796 1.706 1.779z"></path>
<path d="M141.688 7.684c0 0.982-0.764 1.779-1.706 1.779s-1.706-0.796-1.706-1.779c0-0.982 0.764-1.779 1.706-1.779s1.706 0.796 1.706 1.779z"></path>
<path d="M145.953 5.016c0 0.982-0.764 1.779-1.706 1.779s-1.706-0.796-1.706-1.779c0-0.982 0.764-1.779 1.706-1.779s1.706 0.796 1.706 1.779z"></path>
<path d="M149.932 2.645c0 0.982-0.764 1.779-1.706 1.779s-1.706-0.796-1.706-1.779c0-0.982 0.764-1.779 1.706-1.779s1.706 0.796 1.706 1.779z"></path>
<path d="M130.884 9.758c0 0.982-0.764 1.779-1.706 1.779s-1.706-0.796-1.706-1.779c0-0.982 0.764-1.779 1.706-1.779s1.706 0.796 1.706 1.779z"></path>
<path d="M134.579 7.387c0 0.982-0.764 1.779-1.706 1.779s-1.706-0.796-1.706-1.779c0-0.982 0.764-1.779 1.706-1.779s1.706 0.796 1.706 1.779z"></path>
<path d="M138.844 4.72c0 0.982-0.764 1.779-1.706 1.779s-1.706-0.796-1.706-1.779c0-0.982 0.764-1.779 1.706-1.779s1.706 0.796 1.706 1.779z"></path>
<path d="M142.824 2.349c0 0.982-0.764 1.779-1.706 1.779s-1.706-0.796-1.706-1.779c0-0.982 0.764-1.779 1.706-1.779s1.706 0.796 1.706 1.779z"></path>
<path d="M146.804 29.617c0 0.982-0.764 1.779-1.706 1.779s-1.706-0.796-1.706-1.779c0-0.982 0.764-1.779 1.706-1.779s1.706 0.796 1.706 1.779z"></path>
<path d="M150.499 27.245c0 0.982-0.764 1.779-1.706 1.779s-1.706-0.796-1.706-1.779c0-0.982 0.764-1.779 1.706-1.779s1.706 0.796 1.706 1.779z"></path>
<path d="M154.763 24.578c0 0.982-0.764 1.779-1.706 1.779s-1.706-0.796-1.706-1.779c0-0.982 0.764-1.779 1.706-1.779s1.706 0.796 1.706 1.779z"></path>
<path d="M158.744 22.207c0 0.982-0.764 1.779-1.706 1.779s-1.706-0.796-1.706-1.779c0-0.982 0.764-1.779 1.706-1.779s1.706 0.796 1.706 1.779z"></path>
<path d="M142.256 27.839c0 0.982-0.764 1.779-1.706 1.779s-1.706-0.796-1.706-1.779c0-0.982 0.764-1.779 1.706-1.779s1.706 0.796 1.706 1.779z"></path>
<path d="M145.951 25.468c0 0.982-0.764 1.779-1.706 1.779s-1.706-0.796-1.706-1.779c0-0.982 0.764-1.779 1.706-1.779s1.706 0.796 1.706 1.779z"></path>
<path d="M150.215 22.799c0 0.982-0.764 1.779-1.706 1.779s-1.706-0.796-1.706-1.779c0-0.982 0.764-1.779 1.706-1.779s1.706 0.796 1.706 1.779z"></path>
<path d="M154.196 20.429c0 0.982-0.764 1.779-1.706 1.779s-1.706-0.796-1.706-1.779c0-0.982 0.764-1.779 1.706-1.779s1.706 0.796 1.706 1.779z"></path>
<path d="M143.962 21.614c0 0.982-0.764 1.779-1.706 1.779s-1.706-0.796-1.706-1.779c0-0.982 0.764-1.779 1.706-1.779s1.706 0.796 1.706 1.779z"></path>
<path d="M147.656 19.243c0 0.982-0.764 1.779-1.706 1.779s-1.706-0.796-1.706-1.779c0-0.982 0.764-1.779 1.706-1.779s1.706 0.796 1.706 1.779z"></path>
<path d="M151.922 16.575c0 0.982-0.764 1.779-1.706 1.779s-1.706-0.796-1.706-1.779c0-0.982 0.764-1.779 1.706-1.779s1.706 0.796 1.706 1.779z"></path>
<path d="M155.901 14.204c0 0.982-0.764 1.779-1.706 1.779s-1.706-0.796-1.706-1.779c0-0.982 0.764-1.779 1.706-1.779s1.706 0.796 1.706 1.779z"></path>
<path d="M143.962 11.24c0 0.982-0.764 1.779-1.706 1.779s-1.706-0.796-1.706-1.779c0-0.982 0.764-1.779 1.706-1.779s1.706 0.796 1.706 1.779z"></path>
<path d="M147.656 8.869c0 0.982-0.764 1.779-1.706 1.779s-1.706-0.796-1.706-1.779c0-0.982 0.764-1.779 1.706-1.779s1.706 0.796 1.706 1.779z"></path>
<path d="M151.922 6.202c0 0.982-0.764 1.779-1.706 1.779s-1.706-0.796-1.706-1.779c0-0.982 0.764-1.779 1.706-1.779s1.706 0.796 1.706 1.779z"></path>
<path d="M155.901 3.83c0 0.982-0.764 1.779-1.706 1.779s-1.706-0.796-1.706-1.779c0-0.982 0.764-1.779 1.706-1.779s1.706 0.796 1.706 1.779z"></path>
<path d="M143.108 16.872c0 0.982-0.764 1.779-1.706 1.779s-1.706-0.796-1.706-1.779c0-0.982 0.764-1.779 1.706-1.779s1.706 0.796 1.706 1.779z"></path>
<path d="M146.804 14.5c0 0.982-0.764 1.779-1.706 1.779s-1.706-0.796-1.706-1.779c0-0.982 0.764-1.779 1.706-1.779s1.706 0.796 1.706 1.779z"></path>
<path d="M151.068 11.834c0 0.982-0.764 1.779-1.706 1.779s-1.706-0.796-1.706-1.779c0-0.982 0.764-1.779 1.706-1.779s1.706 0.796 1.706 1.779z"></path>
<path d="M155.048 9.462c0 0.982-0.764 1.779-1.706 1.779s-1.706-0.796-1.706-1.779c0-0.982 0.764-1.779 1.706-1.779s1.706 0.796 1.706 1.779z"></path>
<path d="M125.198 8.276c0 0.982-0.764 1.779-1.706 1.779s-1.706-0.796-1.706-1.779c0-0.982 0.764-1.779 1.706-1.779s1.706 0.796 1.706 1.779z"></path>
<path d="M128.895 5.905c0 0.982-0.764 1.779-1.706 1.779s-1.706-0.796-1.706-1.779c0-0.982 0.764-1.779 1.706-1.779s1.706 0.796 1.706 1.779z"></path>
<path d="M133.159 3.238c0 0.982-0.764 1.779-1.706 1.779s-1.706-0.796-1.706-1.779c0-0.982 0.764-1.779 1.706-1.779s1.706 0.796 1.706 1.779z"></path>
<path d="M131.169 10.054c0.942 0 1.706-0.796 1.706-1.778s-0.764-1.779-1.706-1.779-1.706 0.796-1.706 1.779c0 0.982 0.764 1.778 1.706 1.778z"></path>
<path d="M52.732 21.475c0.145 0.985-0.504 1.906-1.449 2.057s-1.828-0.525-1.973-1.51c-0.145-0.985 0.504-1.906 1.449-2.057s1.828 0.525 1.973 1.51z"></path>
<path d="M56.090 18.504c0.145 0.985-0.504 1.906-1.449 2.057s-1.828-0.525-1.973-1.51c-0.145-0.985 0.504-1.906 1.449-2.057s1.828 0.525 1.973 1.51z"></path>
<path d="M59.974 15.144c0.145 0.985-0.504 1.906-1.449 2.057s-1.828-0.525-1.973-1.51c-0.145-0.985 0.504-1.906 1.449-2.057s1.828 0.525 1.973 1.51z"></path>
<path d="M63.617 12.128c0.145 0.985-0.504 1.906-1.449 2.057s-1.828-0.525-1.973-1.51c-0.145-0.985 0.504-1.906 1.449-2.057s1.828 0.525 1.973 1.51z"></path>
<path d="M2.132 19.067c0 0.997-0.779 1.805-1.741 1.805s-1.741-0.808-1.741-1.805c0-0.997 0.779-1.805 1.741-1.805s1.741 0.808 1.741 1.805z"></path>
<path d="M6.485 16.36c0 0.997-0.779 1.805-1.741 1.805s-1.741-0.808-1.741-1.805c0-0.997 0.779-1.805 1.741-1.805s1.741 0.808 1.741 1.805z"></path>
<path d="M10.546 13.953c0 0.997-0.779 1.805-1.741 1.805s-1.741-0.808-1.741-1.805c0-0.997 0.779-1.805 1.741-1.805s1.741 0.808 1.741 1.805z"></path>
<path d="M0.102 25.984c0 0.997-0.779 1.805-1.741 1.805s-1.741-0.808-1.741-1.805c0-0.997 0.779-1.805 1.741-1.805s1.741 0.808 1.741 1.805z"></path>
<path d="M3.874 23.578c0 0.997-0.779 1.805-1.741 1.805s-1.741-0.808-1.741-1.805c0-0.997 0.779-1.805 1.741-1.805s1.741 0.808 1.741 1.805z"></path>
<path d="M8.227 20.871c0 0.997-0.779 1.805-1.741 1.805s-1.741-0.808-1.741-1.805c0-0.997 0.779-1.805 1.741-1.805s1.741 0.808 1.741 1.805z"></path>
<path d="M12.287 18.465c0 0.997-0.779 1.805-1.741 1.805s-1.741-0.808-1.741-1.805c0-0.997 0.779-1.805 1.741-1.805s1.741 0.808 1.741 1.805z"></path>
<path d="M4.453 28.39c0 0.997-0.779 1.805-1.741 1.805s-1.741-0.808-1.741-1.805c0-0.997 0.779-1.805 1.741-1.805s1.741 0.808 1.741 1.805z"></path>
<path d="M8.225 25.984c0 0.997-0.779 1.805-1.741 1.805s-1.741-0.808-1.741-1.805c0-0.997 0.779-1.805 1.741-1.805s1.741 0.808 1.741 1.805z"></path>
<path d="M12.577 23.277c0 0.997-0.779 1.805-1.741 1.805s-1.741-0.808-1.741-1.805c0-0.997 0.779-1.805 1.741-1.805s1.741 0.808 1.741 1.805z"></path>
<path d="M16.637 20.871c0 0.997-0.779 1.805-1.741 1.805s-1.741-0.808-1.741-1.805c0-0.997 0.779-1.805 1.741-1.805s1.741 0.808 1.741 1.805z"></path>
<path d="M9.384 29.895c0 0.997-0.779 1.805-1.741 1.805s-1.741-0.808-1.741-1.805c0-0.997 0.779-1.805 1.741-1.805s1.741 0.808 1.741 1.805z"></path>
<path d="M13.156 27.488c0 0.997-0.779 1.805-1.741 1.805s-1.741-0.808-1.741-1.805c0-0.997 0.779-1.805 1.741-1.805s1.741 0.808 1.741 1.805z"></path>
<path d="M17.509 24.781c0 0.997-0.779 1.805-1.741 1.805s-1.741-0.808-1.741-1.805c0-0.997 0.779-1.805 1.741-1.805s1.741 0.808 1.741 1.805z"></path>
<path d="M21.569 22.375c0 0.997-0.779 1.805-1.741 1.805s-1.741-0.808-1.741-1.805c0-0.997 0.779-1.805 1.741-1.805s1.741 0.808 1.741 1.805z"></path>
<path d="M15.768 30.196c0 0.997-0.779 1.805-1.741 1.805s-1.741-0.808-1.741-1.805c0-0.997 0.779-1.805 1.741-1.805s1.741 0.808 1.741 1.805z"></path>
<path d="M19.539 27.789c0 0.997-0.779 1.805-1.741 1.805s-1.741-0.808-1.741-1.805c0-0.997 0.779-1.805 1.741-1.805s1.741 0.808 1.741 1.805z"></path>
<path d="M23.891 25.082c0 0.997-0.779 1.805-1.741 1.805s-1.741-0.808-1.741-1.805c0-0.997 0.779-1.805 1.741-1.805s1.741 0.808 1.741 1.805z"></path>
<path d="M27.952 22.676c0 0.997-0.779 1.805-1.741 1.805s-1.741-0.808-1.741-1.805c0-0.997 0.779-1.805 1.741-1.805s1.741 0.808 1.741 1.805z"></path>
<path d="M23.311 30.195c0 0.997-0.779 1.805-1.741 1.805s-1.741-0.808-1.741-1.805c0-0.997 0.779-1.805 1.741-1.805s1.741 0.808 1.741 1.805z"></path>
<path d="M27.082 27.789c0 0.997-0.779 1.805-1.741 1.805s-1.741-0.808-1.741-1.805c0-0.997 0.779-1.805 1.741-1.805s1.741 0.808 1.741 1.805z"></path>
<path d="M31.434 25.082c0 0.997-0.779 1.805-1.741 1.805s-1.741-0.808-1.741-1.805c0-0.997 0.779-1.805 1.741-1.805s1.741 0.808 1.741 1.805z"></path>
<path d="M35.496 22.676c0 0.997-0.779 1.805-1.741 1.805s-1.741-0.808-1.741-1.805c0-0.997 0.779-1.805 1.741-1.805s1.741 0.808 1.741 1.805z"></path>
<path d="M29.692 29.894c0 0.997-0.779 1.805-1.741 1.805s-1.741-0.808-1.741-1.805c0-0.997 0.779-1.805 1.741-1.805s1.741 0.808 1.741 1.805z"></path>
<path d="M33.463 27.488c0 0.997-0.779 1.805-1.741 1.805s-1.741-0.808-1.741-1.805c0-0.997 0.779-1.805 1.741-1.805s1.741 0.808 1.741 1.805z"></path>
<path d="M37.816 24.781c0 0.997-0.779 1.805-1.741 1.805s-1.741-0.808-1.741-1.805c0-0.997 0.779-1.805 1.741-1.805s1.741 0.808 1.741 1.805z"></path>
<path d="M41.876 22.375c0 0.997-0.779 1.805-1.741 1.805s-1.741-0.808-1.741-1.805c0-0.997 0.779-1.805 1.741-1.805s1.741 0.808 1.741 1.805z"></path>
<path d="M36.945 29.594c0 0.997-0.779 1.805-1.741 1.805s-1.741-0.808-1.741-1.805c0-0.997 0.779-1.805 1.741-1.805s1.741 0.808 1.741 1.805z"></path>
<path d="M40.716 27.187c0 0.997-0.779 1.805-1.741 1.805s-1.741-0.808-1.741-1.805c0-0.997 0.779-1.805 1.741-1.805s1.741 0.808 1.741 1.805z"></path>
<path d="M45.068 24.481c0 0.997-0.779 1.805-1.741 1.805s-1.741-0.808-1.741-1.805c0-0.997 0.779-1.805 1.741-1.805s1.741 0.808 1.741 1.805z"></path>
<path d="M49.129 22.074c0 0.997-0.779 1.805-1.741 1.805s-1.741-0.808-1.741-1.805c0-0.997 0.779-1.805 1.741-1.805s1.741 0.808 1.741 1.805z"></path>
<path d="M43.617 21.773c0 0.997-0.779 1.805-1.741 1.805s-1.741-0.808-1.741-1.805c0-0.997 0.779-1.805 1.741-1.805s1.741 0.808 1.741 1.805z"></path>
<path d="M47.388 19.367c0 0.997-0.779 1.805-1.741 1.805s-1.741-0.808-1.741-1.805c0-0.997 0.779-1.805 1.741-1.805s1.741 0.808 1.741 1.805z"></path>
<path d="M51.74 16.66c0 0.997-0.779 1.805-1.741 1.805s-1.741-0.808-1.741-1.805c0-0.997 0.779-1.805 1.741-1.805s1.741 0.808 1.741 1.805z"></path>
<path d="M55.802 14.254c0 0.997-0.779 1.805-1.741 1.805s-1.741-0.808-1.741-1.805c0-0.997 0.779-1.805 1.741-1.805s1.741 0.808 1.741 1.805z"></path>
</symbol>

<symbol id="icon-dots-md-1" viewBox="0 0 361 32">
<path d="M309.949 29.706c0 0.999-0.789 1.808-1.762 1.808s-1.762-0.809-1.762-1.808c0-0.999 0.789-1.808 1.762-1.808s1.762 0.809 1.762 1.808z"></path>
<path d="M313.767 27.295c0 0.999-0.789 1.808-1.762 1.808s-1.762-0.809-1.762-1.808c0-0.999 0.789-1.808 1.762-1.808s1.762 0.809 1.762 1.808z"></path>
<path d="M318.172 24.583c0 0.999-0.789 1.808-1.762 1.808s-1.762-0.809-1.762-1.808c0-0.999 0.789-1.808 1.762-1.808s1.762 0.809 1.762 1.808z"></path>
<path d="M322.284 22.172c0 0.999-0.789 1.808-1.762 1.808s-1.762-0.809-1.762-1.808c0-0.999 0.789-1.808 1.762-1.808s1.762 0.809 1.762 1.808z"></path>
<path d="M319.935 28.5c0 0.999-0.789 1.808-1.762 1.808s-1.762-0.809-1.762-1.808c0-0.999 0.789-1.808 1.762-1.808s1.762 0.809 1.762 1.808z"></path>
<path d="M323.752 26.090c0 0.999-0.789 1.808-1.762 1.808s-1.762-0.809-1.762-1.808c0-0.999 0.789-1.808 1.762-1.808s1.762 0.809 1.762 1.808z"></path>
<path d="M328.158 23.378c0 0.999-0.789 1.808-1.762 1.808s-1.762-0.809-1.762-1.808c0-0.999 0.789-1.808 1.762-1.808s1.762 0.809 1.762 1.808z"></path>
<path d="M332.27 20.967c0 0.999-0.789 1.808-1.762 1.808s-1.762-0.809-1.762-1.808c0-0.999 0.789-1.808 1.762-1.808s1.762 0.809 1.762 1.808z"></path>
<path d="M328.452 27.596c0 0.999-0.789 1.808-1.762 1.808s-1.762-0.809-1.762-1.808c0-0.999 0.789-1.808 1.762-1.808s1.762 0.809 1.762 1.808z"></path>
<path d="M332.27 25.185c0 0.999-0.789 1.808-1.762 1.808s-1.762-0.809-1.762-1.808c0-0.999 0.789-1.808 1.762-1.808s1.762 0.809 1.762 1.808z"></path>
<path d="M336.675 22.473c0 0.999-0.789 1.808-1.762 1.808s-1.762-0.809-1.762-1.808c0-0.999 0.789-1.808 1.762-1.808s1.762 0.809 1.762 1.808z"></path>
<path d="M340.786 20.063c0 0.999-0.789 1.808-1.762 1.808s-1.762-0.809-1.762-1.808c0-0.999 0.789-1.808 1.762-1.808s1.762 0.809 1.762 1.808z"></path>
<path d="M336.675 26.391c0 0.999-0.789 1.808-1.762 1.808s-1.762-0.809-1.762-1.808c0-0.999 0.789-1.808 1.762-1.808s1.762 0.809 1.762 1.808z"></path>
<path d="M340.493 23.98c0 0.999-0.789 1.808-1.762 1.808s-1.762-0.809-1.762-1.808c0-0.999 0.789-1.808 1.762-1.808s1.762 0.809 1.762 1.808z"></path>
<path d="M344.898 21.268c0 0.999-0.789 1.808-1.762 1.808s-1.762-0.809-1.762-1.808c0-0.999 0.789-1.808 1.762-1.808s1.762 0.809 1.762 1.808z"></path>
<path d="M349.010 18.858c0 0.999-0.789 1.808-1.762 1.808s-1.762-0.809-1.762-1.808c0-0.999 0.789-1.808 1.762-1.808s1.762 0.809 1.762 1.808z"></path>
<path d="M339.318 29.706c0 0.999-0.789 1.808-1.762 1.808s-1.762-0.809-1.762-1.808c0-0.999 0.789-1.808 1.762-1.808s1.762 0.809 1.762 1.808z"></path>
<path d="M343.136 27.295c0 0.999-0.789 1.808-1.762 1.808s-1.762-0.809-1.762-1.808c0-0.999 0.789-1.808 1.762-1.808s1.762 0.809 1.762 1.808z"></path>
<path d="M348.422 30.007c0 0.999-0.789 1.808-1.762 1.808s-1.762-0.809-1.762-1.808c0-0.999 0.789-1.808 1.762-1.808s1.762 0.809 1.762 1.808z"></path>
<path d="M347.541 24.583c0 0.999-0.789 1.808-1.762 1.808s-1.762-0.809-1.762-1.808c0-0.999 0.789-1.808 1.762-1.808s1.762 0.809 1.762 1.808z"></path>
<path d="M352.828 27.295c0 0.999-0.789 1.808-1.762 1.808s-1.762-0.809-1.762-1.808c0-0.999 0.789-1.808 1.762-1.808s1.762 0.809 1.762 1.808z"></path>
<path d="M356.939 30.007c0 0.999-0.789 1.808-1.762 1.808s-1.762-0.809-1.762-1.808c0-0.999 0.789-1.808 1.762-1.808s1.762 0.809 1.762 1.808z"></path>
<path d="M351.653 22.172c0 0.999-0.789 1.808-1.762 1.808s-1.762-0.809-1.762-1.808c0-0.999 0.789-1.808 1.762-1.808s1.762 0.809 1.762 1.808z"></path>
<path d="M356.939 24.884c0 0.999-0.789 1.808-1.762 1.808s-1.762-0.809-1.762-1.808c0-0.999 0.789-1.808 1.762-1.808s1.762 0.809 1.762 1.808z"></path>
<path d="M361.051 27.596c0 0.999-0.789 1.808-1.762 1.808s-1.762-0.809-1.762-1.808c0-0.999 0.789-1.808 1.762-1.808s1.762 0.809 1.762 1.808z"></path>
<path d="M292.034 9.818c0 0.999-0.789 1.808-1.762 1.808s-1.762-0.809-1.762-1.808c0-0.999 0.789-1.808 1.762-1.808s1.762 0.809 1.762 1.808z"></path>
<path d="M295.852 7.408c0 0.999-0.789 1.808-1.762 1.808s-1.762-0.809-1.762-1.808c0-0.999 0.789-1.808 1.762-1.808s1.762 0.809 1.762 1.808z"></path>
<path d="M300.258 4.696c0 0.999-0.789 1.808-1.762 1.808s-1.762-0.809-1.762-1.808c0-0.999 0.789-1.808 1.762-1.808s1.762 0.809 1.762 1.808z"></path>
<path d="M304.368 2.285c0 0.999-0.789 1.808-1.762 1.808s-1.762-0.809-1.762-1.808c0-0.999 0.789-1.808 1.762-1.808s1.762 0.809 1.762 1.808z"></path>
<path d="M284.692 9.516c0 0.999-0.789 1.808-1.762 1.808s-1.762-0.809-1.762-1.808c0-0.999 0.789-1.808 1.762-1.808s1.762 0.809 1.762 1.808z"></path>
<path d="M288.51 7.106c0 0.999-0.789 1.808-1.762 1.808s-1.762-0.809-1.762-1.808c0-0.999 0.789-1.808 1.762-1.808s1.762 0.809 1.762 1.808z"></path>
<path d="M292.915 4.394c0 0.999-0.789 1.808-1.762 1.808s-1.762-0.809-1.762-1.808c0-0.999 0.789-1.808 1.762-1.808s1.762 0.809 1.762 1.808z"></path>
<path d="M297.027 1.984c0 0.999-0.789 1.808-1.762 1.808s-1.762-0.809-1.762-1.808c0-0.999 0.789-1.808 1.762-1.808s1.762 0.809 1.762 1.808z"></path>
<path d="M301.139 29.706c0 0.999-0.789 1.808-1.762 1.808s-1.762-0.809-1.762-1.808c0-0.999 0.789-1.808 1.762-1.808s1.762 0.809 1.762 1.808z"></path>
<path d="M304.956 27.295c0 0.999-0.789 1.808-1.762 1.808s-1.762-0.809-1.762-1.808c0-0.999 0.789-1.808 1.762-1.808s1.762 0.809 1.762 1.808z"></path>
<path d="M309.362 24.583c0 0.999-0.789 1.808-1.762 1.808s-1.762-0.809-1.762-1.808c0-0.999 0.789-1.808 1.762-1.808s1.762 0.809 1.762 1.808z"></path>
<path d="M313.474 22.172c0 0.999-0.789 1.808-1.762 1.808s-1.762-0.809-1.762-1.808c0-0.999 0.789-1.808 1.762-1.808s1.762 0.809 1.762 1.808z"></path>
<path d="M296.44 27.898c0 0.999-0.789 1.808-1.762 1.808s-1.762-0.809-1.762-1.808c0-0.999 0.789-1.808 1.762-1.808s1.762 0.809 1.762 1.808z"></path>
<path d="M300.258 25.487c0 0.999-0.789 1.808-1.762 1.808s-1.762-0.809-1.762-1.808c0-0.999 0.789-1.808 1.762-1.808s1.762 0.809 1.762 1.808z"></path>
<path d="M304.663 22.775c0 0.999-0.789 1.808-1.762 1.808s-1.762-0.809-1.762-1.808c0-0.999 0.789-1.808 1.762-1.808s1.762 0.809 1.762 1.808z"></path>
<path d="M308.775 20.365c0 0.999-0.789 1.808-1.762 1.808s-1.762-0.809-1.762-1.808c0-0.999 0.789-1.808 1.762-1.808s1.762 0.809 1.762 1.808z"></path>
<path d="M298.201 21.57c0 0.999-0.789 1.808-1.762 1.808s-1.762-0.809-1.762-1.808c0-0.999 0.789-1.808 1.762-1.808s1.762 0.809 1.762 1.808z"></path>
<path d="M302.019 19.16c0 0.999-0.789 1.808-1.762 1.808s-1.762-0.809-1.762-1.808c0-0.999 0.789-1.808 1.762-1.808s1.762 0.809 1.762 1.808z"></path>
<path d="M306.425 16.447c0 0.999-0.789 1.808-1.762 1.808s-1.762-0.809-1.762-1.808c0-0.999 0.789-1.808 1.762-1.808s1.762 0.809 1.762 1.808z"></path>
<path d="M310.536 14.037c0 0.999-0.789 1.808-1.762 1.808s-1.762-0.809-1.762-1.808c0-0.999 0.789-1.808 1.762-1.808s1.762 0.809 1.762 1.808z"></path>
<path d="M298.201 11.024c0 0.999-0.789 1.808-1.762 1.808s-1.762-0.809-1.762-1.808c0-0.999 0.789-1.808 1.762-1.808s1.762 0.809 1.762 1.808z"></path>
<path d="M302.019 8.613c0 0.999-0.789 1.808-1.762 1.808s-1.762-0.809-1.762-1.808c0-0.999 0.789-1.808 1.762-1.808s1.762 0.809 1.762 1.808z"></path>
<path d="M306.425 5.901c0 0.999-0.789 1.808-1.762 1.808s-1.762-0.809-1.762-1.808c0-0.999 0.789-1.808 1.762-1.808s1.762 0.809 1.762 1.808z"></path>
<path d="M310.536 3.49c0 0.999-0.789 1.808-1.762 1.808s-1.762-0.809-1.762-1.808c0-0.999 0.789-1.808 1.762-1.808s1.762 0.809 1.762 1.808z"></path>
<path d="M297.321 16.749c0 0.999-0.789 1.808-1.762 1.808s-1.762-0.809-1.762-1.808c0-0.999 0.789-1.808 1.762-1.808s1.762 0.809 1.762 1.808z"></path>
<path d="M301.139 14.338c0 0.999-0.789 1.808-1.762 1.808s-1.762-0.809-1.762-1.808c0-0.999 0.789-1.808 1.762-1.808s1.762 0.809 1.762 1.808z"></path>
<path d="M305.544 11.626c0 0.999-0.789 1.808-1.762 1.808s-1.762-0.809-1.762-1.808c0-0.999 0.789-1.808 1.762-1.808s1.762 0.809 1.762 1.808z"></path>
<path d="M309.656 9.216c0 0.999-0.789 1.808-1.762 1.808s-1.762-0.809-1.762-1.808c0-0.999 0.789-1.808 1.762-1.808s1.762 0.809 1.762 1.808z"></path>
<path d="M278.819 8.010c0 0.999-0.789 1.808-1.762 1.808s-1.762-0.809-1.762-1.808c0-0.999 0.789-1.808 1.762-1.808s1.762 0.809 1.762 1.808z"></path>
<path d="M282.637 5.6c0 0.999-0.789 1.808-1.762 1.808s-1.762-0.809-1.762-1.808c0-0.999 0.789-1.808 1.762-1.808s1.762 0.809 1.762 1.808z"></path>
<path d="M287.042 2.888c0 0.999-0.789 1.808-1.762 1.808s-1.762-0.809-1.762-1.808c0-0.999 0.789-1.808 1.762-1.808s1.762 0.809 1.762 1.808z"></path>
<path d="M284.986 9.818c0.973 0 1.762-0.809 1.762-1.808s-0.789-1.808-1.762-1.808-1.762 0.809-1.762 1.808 0.789 1.808 1.762 1.808z"></path>
<path d="M3.525 28.466c0 0.999-0.789 1.808-1.762 1.808s-1.762-0.809-1.762-1.808c0-0.999 0.789-1.808 1.762-1.808s1.762 0.809 1.762 1.808z"></path>
<path d="M7.342 26.055c0 0.999-0.789 1.808-1.762 1.808s-1.762-0.809-1.762-1.808c0-0.999 0.789-1.808 1.762-1.808s1.762 0.809 1.762 1.808z"></path>
<path d="M11.748 23.344c0 0.999-0.789 1.808-1.762 1.808s-1.762-0.809-1.762-1.808c0-0.999 0.789-1.808 1.762-1.808s1.762 0.809 1.762 1.808z"></path>
<path d="M15.859 20.933c0 0.999-0.789 1.808-1.762 1.808s-1.762-0.809-1.762-1.808c0-0.999 0.789-1.808 1.762-1.808s1.762 0.809 1.762 1.808z"></path>
<path d="M25.845 29.37c0 0.999-0.789 1.808-1.762 1.808s-1.762-0.809-1.762-1.808c0-0.999 0.789-1.808 1.762-1.808s1.762 0.809 1.762 1.808z"></path>
<path d="M29.663 26.959c0 0.999-0.789 1.808-1.762 1.808s-1.762-0.809-1.762-1.808c0-0.999 0.789-1.808 1.762-1.808s1.762 0.809 1.762 1.808z"></path>
<path d="M34.068 24.248c0 0.999-0.789 1.808-1.762 1.808s-1.762-0.809-1.762-1.808c0-0.999 0.789-1.808 1.762-1.808s1.762 0.809 1.762 1.808z"></path>
<path d="M38.179 21.837c0 0.999-0.789 1.808-1.762 1.808s-1.762-0.809-1.762-1.808c0-0.999 0.789-1.808 1.762-1.808s1.762 0.809 1.762 1.808z"></path>
<path d="M34.949 28.164c0 0.999-0.789 1.808-1.762 1.808s-1.762-0.809-1.762-1.808c0-0.999 0.789-1.808 1.762-1.808s1.762 0.809 1.762 1.808z"></path>
<path d="M38.767 25.754c0 0.999-0.789 1.808-1.762 1.808s-1.762-0.809-1.762-1.808c0-0.999 0.789-1.808 1.762-1.808s1.762 0.809 1.762 1.808z"></path>
<path d="M43.172 23.042c0 0.999-0.789 1.808-1.762 1.808s-1.762-0.809-1.762-1.808c0-0.999 0.789-1.808 1.762-1.808s1.762 0.809 1.762 1.808z"></path>
<path d="M47.284 20.631c0 0.999-0.789 1.808-1.762 1.808s-1.762-0.809-1.762-1.808c0-0.999 0.789-1.808 1.762-1.808s1.762 0.809 1.762 1.808z"></path>
<path d="M51.689 17.016c0 0.999-0.789 1.808-1.762 1.808s-1.762-0.809-1.762-1.808c0-0.999 0.789-1.808 1.762-1.808s1.762 0.809 1.762 1.808z"></path>
<path d="M42.291 19.125c0 0.999-0.789 1.808-1.762 1.808s-1.762-0.809-1.762-1.808c0-0.999 0.789-1.808 1.762-1.808s1.762 0.809 1.762 1.808z"></path>
<path d="M17.622 29.069c0 0.999-0.789 1.808-1.762 1.808s-1.762-0.809-1.762-1.808c0-0.999 0.789-1.808 1.762-1.808s1.762 0.809 1.762 1.808z"></path>
<path d="M21.44 26.658c0 0.999-0.789 1.808-1.762 1.808s-1.762-0.809-1.762-1.808c0-0.999 0.789-1.808 1.762-1.808s1.762 0.809 1.762 1.808z"></path>
<path d="M25.845 23.946c0 0.999-0.789 1.808-1.762 1.808s-1.762-0.809-1.762-1.808c0-0.999 0.789-1.808 1.762-1.808s1.762 0.809 1.762 1.808z"></path>
<path d="M29.956 21.536c0 0.999-0.789 1.808-1.762 1.808s-1.762-0.809-1.762-1.808c0-0.999 0.789-1.808 1.762-1.808s1.762 0.809 1.762 1.808z"></path>
<path d="M10.28 28.767c0 0.999-0.789 1.808-1.762 1.808s-1.762-0.809-1.762-1.808c0-0.999 0.789-1.808 1.762-1.808s1.762 0.809 1.762 1.808z"></path>
<path d="M14.097 26.356c0 0.999-0.789 1.808-1.762 1.808s-1.762-0.809-1.762-1.808c0-0.999 0.789-1.808 1.762-1.808s1.762 0.809 1.762 1.808z"></path>
<path d="M18.503 23.645c0 0.999-0.789 1.808-1.762 1.808s-1.762-0.809-1.762-1.808c0-0.999 0.789-1.808 1.762-1.808s1.762 0.809 1.762 1.808z"></path>
<path d="M22.614 21.234c0 0.999-0.789 1.808-1.762 1.808s-1.762-0.809-1.762-1.808c0-0.999 0.789-1.808 1.762-1.808s1.762 0.809 1.762 1.808z"></path>
</symbol>

<symbol id="icon-dots-lg-1" viewBox="0 0 100 32">
<path d="M45.691 25.73c0 0.287-0.218 0.519-0.487 0.519s-0.487-0.232-0.487-0.519c0-0.287 0.218-0.519 0.487-0.519s0.487 0.232 0.487 0.519z"></path>
<path d="M46.827 25.038c0 0.287-0.218 0.519-0.487 0.519s-0.487-0.232-0.487-0.519c0-0.287 0.218-0.519 0.487-0.519s0.487 0.232 0.487 0.519z"></path>
<path d="M44.798 27.633c0 0.287-0.218 0.519-0.487 0.519s-0.487-0.232-0.487-0.519c0-0.287 0.218-0.519 0.487-0.519s0.487 0.232 0.487 0.519z"></path>
<path d="M45.853 26.941c0 0.287-0.218 0.519-0.487 0.519s-0.487-0.232-0.487-0.519c0-0.287 0.218-0.519 0.487-0.519s0.487 0.232 0.487 0.519z"></path>
<path d="M47.070 26.163c0 0.287-0.218 0.519-0.487 0.519s-0.487-0.232-0.487-0.519c0-0.287 0.218-0.519 0.487-0.519s0.487 0.232 0.487 0.519z"></path>
<path d="M48.206 25.471c0 0.287-0.218 0.519-0.487 0.519s-0.487-0.232-0.487-0.519c0-0.287 0.218-0.519 0.487-0.519s0.487 0.232 0.487 0.519z"></path>
<path d="M46.583 27.72c0 0.287-0.218 0.519-0.487 0.519s-0.487-0.232-0.487-0.519c0-0.287 0.218-0.519 0.487-0.519s0.487 0.232 0.487 0.519z"></path>
<path d="M47.638 27.028c0 0.287-0.218 0.519-0.487 0.519s-0.487-0.232-0.487-0.519c0-0.287 0.218-0.519 0.487-0.519s0.487 0.232 0.487 0.519z"></path>
<path d="M48.856 26.249c0 0.287-0.218 0.519-0.487 0.519s-0.487-0.232-0.487-0.519c0-0.287 0.218-0.519 0.487-0.519s0.487 0.232 0.487 0.519z"></path>
<path d="M49.992 25.557c0 0.287-0.218 0.519-0.487 0.519s-0.487-0.232-0.487-0.519c0-0.287 0.218-0.519 0.487-0.519s0.487 0.232 0.487 0.519z"></path>
<path d="M48.693 27.72c0 0.287-0.218 0.519-0.487 0.519s-0.487-0.232-0.487-0.519c0-0.287 0.218-0.519 0.487-0.519s0.487 0.232 0.487 0.519z"></path>
<path d="M49.748 27.028c0 0.287-0.218 0.519-0.487 0.519s-0.487-0.232-0.487-0.519c0-0.287 0.218-0.519 0.487-0.519s0.487 0.232 0.487 0.519z"></path>
<path d="M50.966 26.249c0 0.287-0.218 0.519-0.487 0.519s-0.487-0.232-0.487-0.519c0-0.287 0.218-0.519 0.487-0.519s0.487 0.232 0.487 0.519z"></path>
<path d="M52.102 25.557c0 0.287-0.218 0.519-0.487 0.519s-0.487-0.232-0.487-0.519c0-0.287 0.218-0.519 0.487-0.519s0.487 0.232 0.487 0.519z"></path>
<path d="M50.479 27.633c0 0.287-0.218 0.519-0.487 0.519s-0.487-0.232-0.487-0.519c0-0.287 0.218-0.519 0.487-0.519s0.487 0.232 0.487 0.519z"></path>
<path d="M51.534 26.941c0 0.287-0.218 0.519-0.487 0.519s-0.487-0.232-0.487-0.519c0-0.287 0.218-0.519 0.487-0.519s0.487 0.232 0.487 0.519z"></path>
<path d="M52.751 26.163c0 0.287-0.218 0.519-0.487 0.519s-0.487-0.232-0.487-0.519c0-0.287 0.218-0.519 0.487-0.519s0.487 0.232 0.487 0.519z"></path>
<path d="M53.887 25.471c0 0.287-0.218 0.519-0.487 0.519s-0.487-0.232-0.487-0.519c0-0.287 0.218-0.519 0.487-0.519s0.487 0.232 0.487 0.519z"></path>
<path d="M52.508 27.547c0 0.287-0.218 0.519-0.487 0.519s-0.487-0.232-0.487-0.519c0-0.287 0.218-0.519 0.487-0.519s0.487 0.232 0.487 0.519z"></path>
<path d="M53.563 26.855c0 0.287-0.218 0.519-0.487 0.519s-0.487-0.232-0.487-0.519c0-0.287 0.218-0.519 0.487-0.519s0.487 0.232 0.487 0.519z"></path>
<path d="M54.78 26.076c0 0.287-0.218 0.519-0.487 0.519s-0.487-0.232-0.487-0.519c0-0.287 0.218-0.519 0.487-0.519s0.487 0.232 0.487 0.519z"></path>
<path d="M55.916 25.384c0 0.287-0.218 0.519-0.487 0.519s-0.487-0.232-0.487-0.519c0-0.287 0.218-0.519 0.487-0.519s0.487 0.232 0.487 0.519z"></path>
<path d="M54.374 25.298c0 0.287-0.218 0.519-0.487 0.519s-0.487-0.232-0.487-0.519c0-0.287 0.218-0.519 0.487-0.519s0.487 0.232 0.487 0.519z"></path>
<path d="M55.429 24.606c0 0.287-0.218 0.519-0.487 0.519s-0.487-0.232-0.487-0.519c0-0.287 0.218-0.519 0.487-0.519s0.487 0.232 0.487 0.519z"></path>
<path d="M56.647 23.827c0 0.287-0.218 0.519-0.487 0.519s-0.487-0.232-0.487-0.519c0-0.287 0.218-0.519 0.487-0.519s0.487 0.232 0.487 0.519z"></path>
<path d="M57.783 23.135c0 0.287-0.218 0.519-0.487 0.519s-0.487-0.232-0.487-0.519c0-0.287 0.218-0.519 0.487-0.519s0.487 0.232 0.487 0.519z"></path>
</symbol>
<symbol id="icon-arrow-2" viewBox="0 0 102 32">
<path d="M101.414 17.414c0.781-0.781 0.781-2.047 0-2.828l-12.728-12.728c-0.781-0.781-2.047-0.781-2.828 0s-0.781 2.047 0 2.828l11.314 11.314-11.314 11.314c-0.781 0.781-0.781 2.047 0 2.828s2.047 0.781 2.828 0l12.728-12.728zM0 18h100v-4h-100v4z"></path>
</symbol>
<symbol id="icon-arrow-3" viewBox="0 0 69 32">
<path d="M68.081 17.414c0.781-0.781 0.781-2.047 0-2.829l-12.728-12.728c-0.781-0.781-2.047-0.781-2.828 0s-0.781 2.047 0 2.828l11.314 11.314-11.314 11.314c-0.781 0.781-0.781 2.047 0 2.828s2.047 0.781 2.828 0l12.728-12.728zM0 18h66.667v-4h-66.667v4z"></path>
</symbol>
<symbol id="icon-arrow-1" viewBox="0 0 82 32">
<path d="M81.414 17.414c0.781-0.781 0.781-2.047 0-2.828l-12.728-12.728c-0.781-0.781-2.047-0.781-2.828 0s-0.781 2.047 0 2.828l11.314 11.314-11.314 11.314c-0.781 0.781-0.781 2.047 0 2.828s2.047 0.781 2.828 0l12.728-12.728zM0 18h80v-4h-80v4z"></path>
</symbol>
<symbol id="icon-cursor" viewBox="0 0 25 32">
<path stroke-linejoin="miter" stroke-linecap="butt" stroke-miterlimit="4" stroke-width="2.6667" d="M8.063 2.682l14.579 13.607c2.495 2.329 1.115 6.511-2.275 6.898l-5.49 0.627c-1.378 0.157-2.672 0.741-3.703 1.668l-3.164 2.848c-2.574 2.317-6.676 0.49-6.676-2.973v-19.752c0-3.498 4.172-5.311 6.729-2.924z"></path>
<symbol id="icon-arrow" viewBox="0 0 32 32">
<path stroke-linejoin="round" stroke-linecap="round" stroke-miterlimit="4" stroke-width="5.3333" d="M10.667 5.333l13.196 10.667-13.196 10.667"></path>
</symbol>
</defs>
</svg>
